<?xml version="1.0" encoding="UTF-8" standalone="no"?>
<!-- Created with Inkscape (http://www.inkscape.org/) -->

<svg
   xmlns:dc="http://purl.org/dc/elements/1.1/"
   xmlns:cc="http://creativecommons.org/ns#"
   xmlns:rdf="http://www.w3.org/1999/02/22-rdf-syntax-ns#"
   xmlns:svg="http://www.w3.org/2000/svg"
   xmlns="http://www.w3.org/2000/svg"
   xmlns:sodipodi="http://sodipodi.sourceforge.net/DTD/sodipodi-0.dtd"
   xmlns:inkscape="http://www.inkscape.org/namespaces/inkscape"
   width="800"
   height="800"
   viewBox="0 0 211.66666 211.66667"
   version="1.1"
   id="svg8"
   inkscape:export-filename="C:\Users\Kudakwashe Paradzayi\Pictures\twitter_profile-sample.png"
   inkscape:export-xdpi="96"
   inkscape:export-ydpi="96"
   inkscape:version="0.92.3 (2405546, 2018-03-11)"
   sodipodi:docname="kuda_face.svg">
  <defs
     id="defs2" />
  <sodipodi:namedview
     id="base"
     pagecolor="#ffffff"
     bordercolor="#666666"
     borderopacity="1.0"
     inkscape:pageopacity="0.0"
     inkscape:pageshadow="2"
     inkscape:zoom="0.35"
     inkscape:cx="-901.09861"
     inkscape:cy="515.90711"
     inkscape:document-units="mm"
     inkscape:current-layer="layer1"
     showgrid="false"
     inkscape:snap-global="false"
     units="px"
     inkscape:window-width="1366"
     inkscape:window-height="715"
     inkscape:window-x="-8"
     inkscape:window-y="-8"
     inkscape:window-maximized="1" />
  <metadata
     id="metadata5">
    <rdf:RDF>
      <cc:Work
         rdf:about="">
        <dc:format>image/svg+xml</dc:format>
        <dc:type
           rdf:resource="http://purl.org/dc/dcmitype/StillImage" />
        <dc:title />
      </cc:Work>
    </rdf:RDF>
  </metadata>
  <g
     inkscape:label="Layer 1"
     inkscape:groupmode="layer"
     id="layer1"
     transform="translate(0,-85.333317)">
    <path
       style="fill:#ff8c12;fill-opacity:1;stroke:none;stroke-width:0.99999994"
       d="m 100.53207,138.08163 c -3.177474,-0.029 -6.457824,0.46125 -9.620084,1.47329 -4.60867,1.47493 -9.87827,5.21584 -12.68657,9.00617 -1.66328,2.24491 -2.14257,2.65294 -3.7362,3.1781 -1.54145,0.50797 -2.37602,0.37103 -5.319575,-0.8723 -4.162229,-1.75808 -5.878116,-1.59061 -9.630936,0.93948 -2.967679,2.00076 -4.651426,2.08368 -8.220686,0.40618 -1.19027,-0.55941 -2.50561,-1.03542 -2.923336,-1.05834 -0.417741,-0.0229 -1.911828,0.89248 -3.32021,2.0345 -3.587011,2.90866 -4.34002,3.15247 -6.778399,2.19367 -2.469316,-0.97096 -3.690361,-0.54209 -4.116544,1.44694 -0.397705,1.85615 0.35958,2.17606 1.971455,0.83251 1.884389,-1.57069 2.917018,-1.33087 3.464906,0.80511 0.530263,2.06731 -0.139955,3.23527 -1.747181,3.04375 -1.36499,-0.16265 -3.824872,1.3847 -4.097424,2.57762 -0.151674,0.66381 0.375207,0.79238 2.884061,0.70228 l 3.069582,-0.11059 0.486275,1.55753 c 0.267243,0.85656 0.349701,1.69186 0.183451,1.85622 -0.166263,0.16437 -0.07124,0.73812 0.21084,1.27486 0.282085,0.53672 0.541766,1.46619 0.577226,2.0655 0.05969,1.00861 0.139328,1.01534 1.074869,0.0904 1.43754,-1.4212 2.669854,-1.20891 3.401343,0.58602 0.478333,1.17371 0.847422,1.50554 2.235523,2.00918 0.914494,0.33179 1.959957,0.90363 2.323372,1.27124 0.48669,0.49227 0.784723,0.46045 1.130163,-0.12196 0.71561,-1.20657 2.501963,-1.53705 3.399793,-0.62891 0.96247,0.97354 0.720587,3.59619 -0.437183,4.7408 -0.45919,0.45397 -0.774332,1.28484 -0.700732,1.8464 0.17737,1.35273 0.497504,1.64985 1.117244,1.03715 0.73584,-0.72748 1.886579,-0.051 2.303219,1.35392 0.31792,1.07209 0.577059,1.23033 2.271178,1.38596 2.26024,0.20764 3.593104,1.40817 3.830774,3.44992 0.0946,0.8127 0.492063,1.80764 0.882633,2.21123 0.99543,1.02764 0.884348,2.80575 -0.221691,3.54759 -0.650961,0.43677 -0.842838,0.99622 -0.656808,1.91565 0.21943,1.08445 -5.45e-4,1.53901 -1.332735,2.76003 -1.20281,1.10241 -1.555821,1.72476 -1.435571,2.52957 0.18963,1.26919 1.413157,2.61982 2.207617,2.43706 0.31087,-0.0715 0.678858,0.10062 0.818038,0.38292 0.2673,0.54216 -0.457384,1.56591 -3.086634,4.35736 l -1.608169,1.70687 1.220079,1.10071 c 0.670991,0.60535 1.573493,1.40582 2.005563,1.7787 0.43205,0.37292 0.861663,1.57908 0.954463,2.68097 0.182041,2.16103 0.09919,2.67143 -0.663525,4.08502 -0.42597,0.78945 -0.692766,0.78375 -1.880505,-0.0387 -0.7612,-0.52712 -1.445003,-0.89773 -1.519803,-0.82372 -0.07486,0.074 -0.133775,1.46699 -0.131775,3.09593 3.3e-5,0.0236 -4.81e-4,0.0448 -5.17e-4,0.0682 0.886056,2.16579 1.506135,4.2907 1.794205,6.35052 0.119169,0.0217 0.206914,0.056 0.252181,0.10387 0.1833,0.19374 0.391621,2.05467 0.463021,4.13515 0.07137,2.08047 0.35007,4.00566 0.6196,4.27829 0.26953,0.27263 0.512402,0.99746 0.539502,1.61075 0.05661,1.28237 0.912335,1.66255 1.789555,0.7953 0.3311,-0.32733 1.258686,-0.66947 2.060856,-0.76067 0.80217,-0.0912 3.189459,-0.49139 5.305622,-0.88936 l 3.84782,-0.72346 3.44527,-4.51498 c 1.89483,-2.48329 3.85405,-5.05625 4.35426,-5.71748 0.89535,-1.18362 0.67968,-2.19821 -0.99271,-4.67154 -0.39417,-0.58296 -0.31441,-0.68446 0.64803,-0.82373 0.77024,-0.11146 1.53961,0.26896 2.57968,1.27589 1.03776,1.00464 1.55987,1.26332 1.74098,0.863 0.15646,-0.34585 0.53291,-0.29409 0.95292,0.13074 1.38082,1.39668 1.96102,-0.74 1.34203,-4.94078 -0.15575,-1.05697 -0.11669,-1.07839 1.02888,-0.55811 3.08677,1.40193 10.795794,2.43786 11.674744,1.5689 0.47284,-0.46745 8.69785,-0.39744 9.16792,0.078 0.94524,0.95611 -3.75306,3.82542 -8.37365,5.1139 -3.313963,0.92412 -4.307884,1.76678 -4.507744,3.82044 -0.12236,1.25737 0.0132,1.52268 0.885741,1.72961 1.416053,0.33584 2.771483,1.80006 2.408633,2.60242 -0.36067,0.79754 -2.739204,1.20851 -4.297924,0.74259 -0.61999,-0.18531 -1.70347,-0.0628 -2.40761,0.27234 -1.03109,0.4908 -1.47622,0.41153 -2.28616,-0.40773 -0.55313,-0.55949 -1.14983,-0.87441 -1.32654,-0.6997 -0.47996,0.4745 0.35028,4.37437 1.09916,5.163 0.35826,0.37727 0.71708,1.6585 0.79788,2.84737 l 0.14676,2.16162 -1.4242,-0.14779 c -0.88485,-0.0918 -1.92544,-0.65407 -2.7466,-1.48467 -2.04964,-2.07321 -1.86586,-0.25768 0.41289,4.08089 l 1.91048,3.63751 2.53008,0.84439 c 1.39162,0.46438 4.7097,0.88729 7.373194,0.93999 2.66349,0.0527 5.80014,0.12285 6.97064,0.15555 2.96214,0.0827 10.46171,-0.54066 11.93674,-0.99219 1.51138,-0.46266 4.62566,-3.20739 6.16758,-5.43533 0.9637,-1.39243 1.23972,-1.57908 1.6769,-1.13688 0.72989,0.73828 1.08552,0.23101 1.00252,-1.42833 -0.0769,-1.537 -0.90412,-3.62902 -1.99523,-5.04466 -0.7282,-0.94478 -0.5901,-2.73196 0.21084,-2.72696 0.25895,10e-4 1.72888,1.8002 3.26647,3.99717 l 2.7957,3.99459 5.49992,2.47117 c 5.76261,2.58934 8.1224,3.19037 6.64094,1.69188 -0.43492,-0.43992 -0.8218,-1.38116 -0.8599,-2.09186 -0.0381,-0.71069 -0.5406,-2.30885 -1.11673,-3.55172 -1.1992,-2.58704 -1.43361,-4.84434 -0.58911,-5.67924 0.84401,-0.83442 3.97071,0.0777 5.47254,1.5968 1.46423,1.48106 3.61072,5.86989 3.37447,6.89932 -0.0868,0.37828 -0.41789,0.94968 -0.73587,1.26969 -0.34852,0.35063 -0.32616,0.83629 0.0558,1.22266 0.12158,0.12299 0.2424,0.34124 0.35295,0.61082 2.54933,-9.01204 5.42547,-21.18976 8.64288,-37.56928 2.86651,-14.59312 4.27229,-26.73668 4.55993,-36.89077 -0.14082,0.67667 -0.31043,1.31669 -0.51418,1.95026 -0.61041,1.89803 -1.44084,4.0583 -1.84537,4.80023 -1.32604,2.43211 -2.84131,6.50187 -3.2706,8.78447 -1.21257,6.44738 -1.70508,7.63574 -2.9347,7.07968 -1.04708,-0.47353 -1.69051,-2.62261 -1.22525,-4.09226 0.24555,-0.77568 0.2732,-2.78613 0.061,-4.46743 -1.07958,-8.55261 -1.31998,-12.09928 -1.06402,-15.7179 0.27383,-3.87142 0.35372,-4.07971 3.35276,-8.7452 1.68973,-2.62864 3.85145,-5.56661 4.80385,-6.52829 l 1.69757,-1.71359 c -0.004,-0.027 -0.008,-0.0542 -0.0119,-0.0811 l -3.17138,-3.20756 c -1.76953,-1.78978 -3.62481,-3.36649 -4.12275,-3.50366 -0.49793,-0.13717 -1.46452,-0.51985 -2.14819,-0.85008 -1.39308,-0.67288 -2.69564,-0.31941 -2.70164,0.73278 -0.003,0.48475 0.38867,0.76628 1.29449,0.93121 1.79098,0.32608 2.50245,1.18362 2.19057,2.63911 -0.31737,1.48099 -2.96398,3.3404 -4.4204,3.10576 -1.20126,-0.19354 -4.18181,-2.43727 -4.77181,-3.59203 -0.31025,-0.60725 -0.92353,-0.9242 -1.85415,-0.95912 -0.76475,-0.0287 -2.83127,-0.58443 -4.59248,-1.23455 -1.76122,-0.65013 -3.83802,-1.15657 -4.61471,-1.12551 -0.77669,0.0311 -2.91942,0.87068 -4.76146,1.86552 -4.1839,2.25961 -6.15572,2.2432 -8.44341,-0.0708 -2.74144,-2.77297 -9.67991,-7.70988 -12.21838,-8.69353 -2.75099,-1.066 -5.8256,-1.61431 -9.00307,-1.64331 z m 28.50317,15.59543 c 1.01017,0.005 2.20652,0.33876 2.80552,0.94464 0.5116,0.51749 1.02617,1.50516 1.14359,2.1947 0.26937,1.58181 -1.31705,3.29646 -2.66495,2.87993 -1.14833,-0.35487 -3.36848,-4.44399 -2.93419,-5.40433 0.19113,-0.42263 0.86434,-0.61846 1.65003,-0.61494 z m -40.482284,6.02237 c 2.54847,0.0146 3.48996,0.79012 4.70255,3.87315 l 0.85835,2.18281 -1.64486,1.18856 c -0.90467,0.65369 -2.14095,1.27793 -2.74764,1.38751 -2.90082,0.52393 -2.02008,1.88965 2.05104,3.17965 2.54611,0.80678 2.80141,0.98791 3.36414,2.39003 0.59496,1.48247 -2e-4,2.25946 -0.97514,1.27331 -0.2694,-0.27249 -1.2147,-0.49988 -2.10116,-0.50488 -0.88645,-0.005 -2.53314,-0.1385 -3.65921,-0.29662 -1.12607,-0.15812 -2.85479,-0.10145 -3.84163,0.12557 -0.98684,0.22704 -2.22485,0.1864 -2.75073,-0.0899 -2.26174,-1.18838 -4.62796,0.5097 -5.27203,3.78324 -0.48692,2.47491 -0.22444,2.87249 1.29552,1.96473 1.87446,-1.11942 5.28601,-1.80369 6.74481,-1.35288 1.26789,0.39182 1.35497,0.52311 1.21078,1.82314 -0.0868,0.78297 -0.67434,1.91379 -1.3317,2.56367 -0.64692,0.63957 -1.13801,1.53484 -1.09141,1.98902 0.0713,0.69539 -0.22228,0.93639 -1.85931,1.52601 l -1.94407,0.70021 1.14463,-1.17563 1.14463,-1.17564 -1.48569,0.43305 c -1.22506,0.35675 -1.644,0.72233 -2.38797,2.08411 -1.17537,2.1514 -0.52745,2.75521 3.0148,2.80861 2.01454,0.0304 2.65376,0.20289 2.24638,0.60565 -0.67808,0.67037 -0.55837,0.81087 1.58491,1.8619 0.90744,0.44499 2.36851,0.72715 3.24683,0.62735 2.72953,-0.31022 3.62749,1.66964 1.6459,3.62872 -0.59413,0.58737 -1.02075,1.32767 -0.94775,1.64486 0.19305,0.83913 3.02357,0.8175 5.55418,-0.0424 1.54054,-0.52346 2.59748,-0.54495 3.55328,-0.0724 1.527391,0.75521 3.488074,0.89605 5.182634,0.37207 0.62464,-0.19315 1.27879,-0.20684 1.45365,-0.03 0.5392,0.5454 -1.42854,2.1104 -3.17138,2.52232 -0.94648,0.22371 -1.938183,0.80556 -2.319754,1.36064 -0.40786,0.59332 -1.03857,0.93279 -1.62471,0.87489 -0.52686,-0.052 -1.45438,0.39674 -2.06137,0.99684 -0.95616,0.9453 -0.99656,1.22704 -0.30283,2.11149 0.62891,0.80184 0.62614,1.23838 -0.0119,2.03295 -0.96553,1.20244 -0.73843,1.55005 0.96376,1.47485 0.69466,-0.0307 1.63025,0.3156 2.07894,0.76946 0.73764,0.74612 0.69501,0.9103 -0.447,1.71411 -0.69469,0.48896 -1.63519,1.04782 -2.08979,1.24178 -0.73492,0.31358 -0.69272,0.40316 0.38137,0.81184 0.66438,0.2528 1.68848,0.28353 2.27583,0.0677 1.115761,-0.41001 4.956074,-0.81668 10.039184,-1.06299 1.64533,-0.0797 3.19034,-0.24224 3.43287,-0.36121 0.69026,-0.33855 1.33919,0.57864 0.97668,1.38027 -0.42954,0.9498 -0.39938,0.93039 -1.33377,0.83819 -0.44512,-0.0439 -1.647,0.35193 -2.67115,0.87954 -1.02416,0.52762 -2.59033,0.98937 -3.48041,1.02577 -0.89007,0.0364 -1.86483,0.30971 -2.16628,0.60772 -0.50629,0.50054 -2.77858,0.3228 -5.251364,-0.41083 -0.56403,-0.16736 -1.39472,-0.0335 -1.84639,0.29714 -1.01377,0.74226 -1.6473,0.15973 -1.83038,-1.6831 -0.13799,-1.3889 -0.1595,-1.40653 -1.87637,-1.56425 -0.95505,-0.0877 -1.87338,-0.2979 -2.04071,-0.46715 -0.16733,-0.16925 0.3835,-0.98784 1.2237,-1.81849 1.85579,-1.83471 1.31149,-2.34605 -1.32912,-1.24851 -3.56516,1.48183 -3.98948,1.3203 -3.08818,-1.17874 0.34133,-0.94639 0.40321,-2.21231 0.13746,-2.81326 -0.26574,-0.60095 -0.20867,-1.6616 0.12661,-2.35696 0.33529,-0.69535 0.7276,-2.28667 0.87178,-3.53622 0.24903,-2.15821 0.21056,-2.25661 -0.76843,-1.96629 -2.08269,0.61762 -4.64985,5.17982 -4.56355,8.1101 0.0599,2.03434 -0.85972,5.44154 -1.00872,3.73724 -0.0573,-0.65581 -0.54477,-1.31389 -1.4242,-1.92288 -1.73809,-1.20361 -2.94238,-1.11819 -3.36155,0.23823 -0.40695,1.31686 -0.59878,1.48045 -1.1188,0.95446 -0.69076,-0.6987 -2.93134,-13.47766 -2.86184,-16.322 l 0.0641,-2.60553 -1.48053,-0.0548 c -0.81408,-0.0301 -1.700359,-0.38271 -1.96939,-0.78342 -0.55978,-0.83379 0.496622,-2.50559 1.57923,-2.49959 1.36726,0.008 1.49517,-0.78651 0.93896,-5.84305 -0.7255,-6.59582 -0.4006,-10.89974 1.01855,-13.49168 0.61863,-1.12987 1.2114,-2.74595 1.31723,-3.591 0.10584,-0.84504 0.49093,-1.83143 0.85576,-2.19211 0.54857,-0.54234 0.79029,-0.46252 1.39836,0.46095 1.07077,1.62622 1.64142,1.56898 4.08244,-0.41031 3.27264,-2.6536 5.34798,-3.61471 7.77834,-3.60081 z m 43.920314,7.09879 c 0.87335,0.0147 1.77226,0.69711 4.65192,3.05718 l 3.54552,2.90576 1.44332,3.78633 c 1.3488,3.53861 2.44649,8.41593 2.51509,11.17555 h -5.2e-4 c 0.0406,1.6324 -0.53568,2.07334 -2.61431,1.99884 -1.14991,-0.0412 -2.60136,-0.6248 -4.14651,-1.6676 -1.30745,-0.88234 -3.24568,-1.85811 -4.30723,-2.16834 -1.8402,-0.53779 -1.95756,-0.64358 -2.5213,-2.26446 -0.3252,-0.93503 -0.38241,-2.62282 -0.12712,-3.75119 0.74243,-3.2796 0.74545,-7.4347 0.006,-8.18245 -0.37419,-0.3785 -0.6032,-1.53134 -0.5085,-2.56211 0.13491,-1.46866 0.37894,-1.93528 1.12655,-2.15698 0.35784,-0.10612 0.64578,-0.17542 0.93689,-0.17053 z m -36.258254,13.39763 c 0.0518,4.7e-4 0.10548,0.004 0.1602,0.0119 1.66849,0.22791 2.29103,0.90753 2.28203,2.49029 v 5.2e-4 c -0.005,0.89114 -0.39069,1.99745 -0.85731,2.45876 -0.70537,0.69734 -1.00279,0.68286 -1.76372,-0.0868 -1.5998,-1.61819 -1.42573,-4.88925 0.1788,-4.87464 z m 48.559834,15.69413 c 0.54917,0.0421 1.10598,1.08052 1.43764,2.86804 0.20097,1.08323 0.57734,2.38376 0.83612,2.89027 0.25879,0.50651 0.2589,1.13052 0,1.38647 -0.2589,0.25595 -0.20628,1.31548 0.11731,2.3549 0.56663,1.82023 0.84957,5.98855 0.5519,8.13594 -0.12276,0.88559 -0.32337,1.04245 -1.39629,1.08985 -1.07435,0.0474 -1.37868,0.28521 -2.13476,1.66915 -0.48499,0.88767 -1.30415,1.85809 -1.82056,2.15646 -0.67289,0.38877 -0.79509,0.68796 -0.43047,1.05678 0.27983,0.28305 0.42107,1.21632 0.31368,2.07378 -0.30759,2.45591 -3.2169,4.70732 -5.02036,3.88503 -2.54434,-1.16009 -2.46886,-3.87923 0.12557,-4.53099 1.93369,-0.48577 2.3683,-1.47986 1.54203,-3.52536 -0.90292,-2.23524 -0.54272,-3.19171 1.57819,-4.19148 0.95285,-0.44917 2.2877,-0.91127 2.96623,-1.02681 1.68548,-0.28702 2.6251,-1.32869 2.85512,-3.16518 0.2557,-2.04159 -1.15328,-6.27423 -2.56366,-7.70082 -0.64094,-0.6483 -0.95805,-1.30585 -0.73588,-1.52549 0.21471,-0.21227 0.42196,-0.82692 0.46096,-1.36633 0.039,-0.53942 0.30712,-1.41731 0.59531,-1.95078 0.22452,-0.41559 0.47229,-0.60257 0.72192,-0.58343 z m -52.851554,5.93246 c -0.26819,-0.002 -0.50177,0.0298 -0.6718,0.10438 -1.77281,0.77743 -1.11515,1.65088 1.74356,2.31562 1.26254,0.29358 2.24685,-0.27292 2.03967,-1.17357 -0.13488,-0.58632 -1.94932,-1.23653 -3.11143,-1.24643 z m 56.532464,15.69103 c 0.0607,0.019 0.14837,0.28187 0.30334,0.80098 0.3535,1.18413 0.2465,1.66771 -0.25683,1.15859 -0.15908,-0.16087 -0.24337,-0.74501 -0.18707,-1.29811 0.0464,-0.45596 0.0799,-0.6805 0.14056,-0.66146 z m 0.29921,4.33668 c 0.5947,0.0381 1.11591,0.55106 1.56321,1.53841 0.64812,1.43063 -0.86527,2.83478 -2.41846,2.24379 -1.75625,-0.66826 -1.98516,-1.70454 -0.66507,-3.00963 0.55108,-0.54482 1.05777,-0.80217 1.52032,-0.77257 z m -86.922865,0.38189 c 0.584715,-0.0365 1.301437,0.78286 1.296562,1.68414 -0.0055,0.9649 -0.324924,1.32558 -1.023194,1.15652 -0.75711,-0.1833 -1.221899,-2.10071 -0.646989,-2.66909 0.110359,-0.10911 0.238687,-0.16314 0.373621,-0.17157 z m 1.366325,5.81412 c 0.784062,0.0292 1.547216,0.62577 1.899109,1.58336 0.51373,1.398 -0.760849,3.14647 -1.913579,2.62517 -0.80643,-0.36469 -1.43667,-3.70843 -0.76171,-4.0411 0.251575,-0.124 0.514826,-0.17717 0.77618,-0.16743 z m 5.384167,5.17643 c 0.170655,0.0105 0.318599,0.0658 0.419613,0.16794 0.52352,0.52954 -0.0386,1.71604 -0.810803,1.71205 -1.04375,-0.006 -1.365798,-0.95488 -0.533818,-1.57252 0.293981,-0.21824 0.640584,-0.32491 0.925008,-0.30747 z m -3.985803,2.81275 c 0.08503,0.0108 0.199491,0.10053 0.356567,0.25941 0.6152,0.62227 0.473744,1.56645 -0.209806,1.40095 -0.26597,-0.0644 -0.443808,-0.52319 -0.394808,-1.01958 0.04527,-0.45864 0.106327,-0.65885 0.248047,-0.64078 z"
       id="path842"
       inkscape:connector-curvature="0" />
    <path
       style="fill:#7539a4;fill-opacity:1;stroke:none;stroke-width:0.99999994"
       d="m 102.76102,140.02835 c -2.50222,-0.007 -5.060831,0.31227 -7.511169,0.96377 -4.991071,1.32703 -10.494711,4.75073 -13.065871,8.12767 -1.905,2.50202 -4.142962,4.12553 -5.696291,4.13153 -0.63472,0.002 -2.378527,-0.64373 -3.875217,-1.43557 -1.4967,-0.79186 -3.529711,-1.45708 -4.51807,-1.47847 -1.721686,-0.0373 -5.012021,1.49271 -6.88485,3.20136 -0.528537,0.48224 -1.634228,0.63949 -3.088185,0.43873 -1.833853,-0.25322 -2.232496,-0.16154 -2.092893,0.48163 0.09483,0.43688 0.272867,1.94675 0.395324,3.35535 0.726501,8.35717 1.051523,9.31129 4.725807,13.86065 1.135841,1.40635 2.577463,3.2314 3.203425,4.05608 0.625967,0.82468 1.295212,1.70349 1.487246,1.95285 0.192053,0.24932 0.30131,1.49629 0.24288,2.77089 -0.05843,1.27461 0.19,2.6419 0.551905,3.03858 0.787617,0.86329 1.58904,3.61575 1.165302,4.00234 -0.165175,0.15069 -0.163259,0.62441 0.0047,1.05317 0.167875,0.42876 0.41929,-0.65693 0.558623,-2.41278 0.139327,-1.75587 0.400433,-3.32661 0.580326,-3.49074 0.179888,-0.16412 0.20121,-1.01495 0.04702,-1.89084 -0.154197,-0.87588 -0.109877,-2.64933 0.0987,-3.94085 0.29945,-1.85408 0.636643,-2.50842 1.603002,-3.1104 0.979781,-0.61035 1.305859,-1.27044 1.634009,-3.30781 0.43693,-2.71272 0.785984,-3.30872 4.032313,-6.88588 1.910879,-2.10562 2.373805,-2.38427 5.799646,-3.4892 2.82758,-0.91197 4.845782,-1.14794 8.392252,-0.98185 5.73672,0.26869 7.47169,0.84393 8.842873,2.93212 l 1.015443,1.54668 1.02371,-1.35806 c 0.91561,-1.21506 1.2801,-1.34695 3.46077,-1.24695 1.34061,0.0615 3.16785,-0.11115 4.06073,-0.38396 1.28086,-0.39133 1.81596,-0.28508 2.53525,0.50333 0.79545,0.87188 0.78379,1.11618 -0.0925,1.91565 -0.5524,0.50397 -2.19185,1.28841 -3.64319,1.74356 -3.98349,1.24928 -5.38018,2.96461 -4.27261,5.24671 0.33629,0.6929 0.90443,0.92208 2.1699,0.87488 0.94309,-0.0352 2.56426,0.12072 3.60236,0.34675 l 1.88722,0.41134 -1.31361,0.7581 c -1.38388,0.79857 -3.05951,4.12071 -2.97605,5.90041 0.0228,0.4852 -0.19875,1.10089 -0.49195,1.36839 -0.29321,0.26751 -0.8494,1.50503 -1.23611,2.75022 -0.58171,1.87312 -0.9992,2.46264 -2.41897,3.41478 -1.94508,1.30443 -2.758413,2.94936 -1.91513,3.87367 1.01075,1.10786 0.93846,3.06937 -0.14986,4.06228 -1.553571,1.41738 -0.871303,3.02387 1.69395,3.98787 1.08672,0.40838 2.75072,0.85904 3.69745,1.00149 2.64795,0.39844 4.75283,1.05364 4.73356,1.47381 -0.01,0.20884 -0.81067,0.76178 -1.78025,1.22835 -0.96957,0.46655 -2.86636,1.59694 -4.21473,2.51251 -1.34838,0.91554 -2.97601,1.95025 -3.61735,2.29908 -0.92496,0.50308 -1.056,0.75493 -0.63304,1.21853 0.29328,0.32146 0.99347,0.60569 1.55598,0.63149 1.38907,0.0637 1.65133,0.87127 0.65629,2.02107 -0.45403,0.52464 -0.70068,1.09071 -0.54777,1.25831 0.15292,0.1676 1.61234,0.0984 3.2427,-0.15399 3.17689,-0.49185 4.67422,-0.43722 5.89576,0.21497 1.10169,0.58822 -0.39387,1.82701 -2.81947,2.33526 -2.95038,0.6182 -2.31331,1.21059 1.36891,1.27279 1.82805,0.0309 3.55422,0.30874 3.83594,0.61754 0.61048,0.66913 -0.66963,2.87846 -1.42368,2.45721 -0.53253,-0.2975 -2.96446,0.3996 -4.5589,1.30638 -0.92269,0.52475 -0.91347,0.56241 0.16744,0.66611 0.63033,0.0605 2.17394,-0.15435 3.42976,-0.47749 2.50863,-0.64547 3.51867,-0.0797 2.84789,1.59577 -1.14435,2.85824 -4.42303,5.23326 -8.81858,6.38824 -4.25968,1.11927 -2.35447,3.40426 3.19257,3.82922 3.96332,0.30363 4.86868,1.13296 2.99723,2.74505 -2.07734,1.78943 -6.15926,3.5269 -8.38553,3.5693 -2.27339,0.0433 -5.883687,1.34594 -6.359307,2.29443 -0.160211,0.31951 0.0734,0.97996 0.518829,1.46813 1.377892,1.51028 3.725028,2.30187 6.295228,2.12235 1.35438,-0.0946 2.6554,0.0391 2.8913,0.29765 0.2359,0.25857 2.0514,0.64851 4.03437,0.8661 1.98298,0.21758 4.05524,0.58305 4.60489,0.81235 0.54964,0.22932 1.99123,0.12414 3.20342,-0.23409 1.53759,-0.45433 2.39889,-0.43748 2.84944,0.0563 0.35519,0.38931 0.94239,0.59203 1.30483,0.4501 0.36246,-0.14191 1.0993,0.0327 1.63711,0.38912 1.11263,0.73743 1.93891,0.23303 1.8743,-1.14463 -0.0241,-0.5143 0.24262,-1.12118 0.59221,-1.34876 0.98758,-0.6428 1.07997,-1.66497 0.23462,-2.59157 -0.78213,-0.85727 -1.50689,-0.69757 -1.32086,0.29094 0.12794,0.67986 -0.45182,1.24281 -0.84077,0.81649 -0.16012,-0.17551 0.0282,-1.41738 0.41806,-2.76004 0.38991,-1.34266 0.74938,-3.21709 0.79944,-4.16512 0.21268,-4.02828 1.28133,-11.26517 1.72289,-11.66802 0.78865,-0.71951 2.24524,-0.26028 2.97243,0.93741 0.3746,0.61697 1.80718,1.95044 3.18326,2.96312 0.13489,0.0993 0.25915,0.1876 0.38189,0.27492 0.0709,-0.38578 0.14163,-0.76953 0.21239,-1.1591 -0.53191,-1.14989 -0.70516,-2.2669 -0.35966,-2.86494 0.15938,-0.27589 0.55719,-0.63523 1.04179,-0.97152 1.70854,-9.76957 3.3361,-20.52921 4.52582,-31.46629 -0.11636,-0.0802 -0.23399,-0.15999 -0.34675,-0.24133 -1.37673,-0.99318 -3.059,-1.93041 -3.73879,-2.08256 -3.11285,-0.69673 -3.79563,-3.34138 -2.48511,-9.62732 0.33591,-1.61116 0.31892,-3.41196 -0.0419,-4.40284 -1.22202,-3.35659 -0.37651,-6.03352 1.87327,-5.93038 0.51229,0.0235 2.5161,1.42997 4.61781,3.24166 l 1.60403,1.38286 c 0.44905,-7.91915 0.56594,-15.69155 0.21239,-22.99911 -3.2812,-1.20591 -4.13594,-0.96692 -8.79326,1.52342 -3.49763,1.87024 -5.35334,1.59957 -7.85792,-1.14567 -3.47725,-3.81136 -9.07824,-7.9256 -12.83177,-9.42526 -2.68288,-1.0719 -5.80711,-1.61912 -9.02425,-1.62781 z m 27.64947,14.86938 c 1.23894,0.0706 3.85094,1.19113 4.7439,2.16989 0.49244,0.53976 0.94667,1.68632 1.00976,2.54817 h 5.1e-4 c 0.15392,2.10273 -1.38317,3.53362 -3.27421,3.04839 -1.2848,-0.32925 -1.44851,-0.50901 -2.43138,-2.66805 -1.11123,-2.441 -1.35064,-4.32541 -0.63252,-4.98058 0.0745,-0.068 0.19673,-0.10594 0.35553,-0.11731 0.0695,-0.005 0.14582,-0.005 0.22841,-5.1e-4 z m -70.105276,19.12958 c -0.04868,-0.002 -0.100666,-7.4e-4 -0.154514,0.003 -0.0718,0.004 -0.147238,0.0134 -0.221692,0.0274 -0.297643,0.056 -0.390292,0.26662 -0.206705,0.46819 0.183991,0.20169 0.490146,0.22486 0.68058,0.0512 0.190431,-0.17374 0.283831,-0.3847 0.207221,-0.4687 -0.04309,-0.0473 -0.158861,-0.0753 -0.30489,-0.0806 z m 27.722854,2.11305 c -0.947669,0.006 -1.958232,0.31849 -2.978111,0.93844 -1.927222,1.17147 -1.134848,1.64709 2.807063,1.68569 4.079989,0.0399 4.592082,-0.2779 2.772442,-1.71928 -0.769152,-0.60927 -1.653723,-0.9105 -2.601394,-0.90485 z m -16.105992,0.0496 c -0.355161,0.0349 -0.767887,1.06045 -1.214398,3.08353 -0.446698,2.02395 -0.358555,2.94347 0.421164,4.39508 0.553281,1.03007 0.835514,2.26161 0.642855,2.80655 -0.28236,0.79872 -0.182229,0.99342 0.565341,1.09761 0.785429,0.10946 0.902221,-0.19694 0.858861,-2.25516 -0.0276,-1.31005 -0.172347,-3.75738 -0.321426,-5.43843 -0.221372,-2.4962 -0.549886,-3.72878 -0.952397,-3.68918 z m 46.549614,1.61385 c 0.89142,0.0302 0.94962,0.30755 1.12241,1.38131 0.29568,1.8375 0.11736,1.97729 -2.30374,1.80816 -1.09464,-0.0765 -2.65155,-0.003 -3.45922,0.16382 -2.10998,0.43504 -2.19364,-0.033 -0.31057,-1.73168 1.2979,-1.17072 2.10326,-1.51228 3.74706,-1.59008 0.51732,-0.0245 0.90692,-0.0416 1.20406,-0.0315 z m -25.395351,4.93872 c -0.0408,-0.003 -0.08083,-0.002 -0.120407,0.002 -0.23454,0.0232 -0.445749,0.16259 -0.611849,0.4501 -0.300709,0.52051 -1.237414,0.98468 -2.444295,1.21181 l -1.956469,0.36845 1.460894,0.37517 c 2.02492,0.51957 1.796468,1.23897 -0.376721,1.18598 -2.525451,-0.0616 -8.978678,2.81991 -8.20777,3.66489 0.435171,0.47701 2.533947,0.43467 3.078367,-0.062 0.310549,-0.28328 0.845584,-0.27192 1.189074,0.0253 0.34349,0.29728 1.033627,0.90875 1.533758,1.35857 1.176599,1.05829 2.55002,1.22885 4.835879,0.60152 1.01408,-0.27828 2.2849,-0.44459 2.823599,-0.36949 0.560322,0.0781 1.321909,-0.25713 1.779739,-0.78393 0.660699,-0.76021 0.638855,-1.06527 -0.125574,-1.74821 -0.559462,-0.49982 -0.79537,-1.08778 -0.595831,-1.4857 0.802484,-1.60037 -0.997667,-4.71522 -2.262394,-4.79454 z m 20.332611,0.0661 c 0.068,-2.6e-4 0.13365,0.004 0.19585,0.0124 0.75304,0.10496 0.78867,0.23233 0.21239,0.75809 -0.38087,0.34748 -1.09964,0.5748 -1.59732,0.5054 -0.75303,-0.10495 -0.78867,-0.23181 -0.21239,-0.75758 0.33326,-0.30405 0.92528,-0.51649 1.40147,-0.51831 z m -0.74259,3.33519 c 0.10041,-0.003 0.18674,0.0257 0.24391,0.0884 0.15249,0.16711 0.22025,0.71103 0.1509,1.20871 -0.10537,0.75599 -0.2362,0.78399 -0.79634,0.17002 -0.38538,-0.4224 -0.44993,-0.93636 -0.15141,-1.20872 0.17854,-0.16285 0.38559,-0.25386 0.55294,-0.25838 z m -22.075657,2.0221 c 0.171841,-0.006 0.355235,0.0692 0.524515,0.25477 0.258231,0.28305 0.23313,0.8317 -0.05581,1.21904 -0.381391,0.51125 -0.650869,0.4991 -0.983919,-0.045 -0.40903,-0.66813 -3.36e-4,-1.4119 0.515213,-1.42885 z M 71.7903,192.58374 c -0.179739,0.006 -0.334004,0.0314 -0.436665,0.077 -0.508709,0.22587 0.1984,4.56652 0.86248,5.29528 0.589788,0.64619 0.857727,0.0753 1.183905,-2.52749 0.25396,-2.02646 0.147309,-2.49223 -0.621149,-2.71715 -0.318791,-0.0932 -0.689002,-0.13754 -0.988571,-0.12764 z m 50.63412,1.65055 c 0.61724,-0.0716 1.38118,1.26083 1.24075,2.39571 -0.0833,0.6736 0.008,1.39954 0.20309,1.61334 0.19507,0.21382 0.30515,0.90656 0.24443,1.53944 -0.0607,0.6329 -0.19625,1.22865 -0.30076,1.32395 -0.42762,0.39014 -1.84756,-0.11259 -3.5264,-1.2485 -0.97963,-0.66284 -2.85169,-1.92901 -4.16047,-2.81378 -1.30877,-0.88478 -2.37473,-1.72228 -2.36833,-1.86087 0.017,-0.37072 3.42838,-0.71264 5.89576,-0.59118 1.17939,0.0581 2.31293,-0.0485 2.51923,-0.23668 0.0791,-0.0722 0.16453,-0.11122 0.2527,-0.12143 z m -25.513689,0.14676 c -0.144532,0.005 -0.299839,0.0388 -0.456819,0.10852 -0.294921,0.13094 -0.310716,0.48498 -0.03566,0.78651 0.275079,0.30156 0.746479,0.3231 1.047998,0.0481 0.49679,-0.45326 0.07081,-0.96606 -0.555521,-0.94309 z m -2.960026,2.95434 v 5.1e-4 c -0.0442,0.002 -0.0908,0.008 -0.139526,0.0165 -0.38985,0.0734 -0.770308,0.34877 -0.845428,0.61237 -0.0751,0.26359 0.182218,0.41963 0.572058,0.34623 0.389861,-0.0734 0.770308,-0.34927 0.845429,-0.61288 0.0657,-0.23065 -0.123114,-0.37854 -0.432533,-0.36277 z m -20.627681,4.98367 c -0.627634,0.0612 -1.17451,1.23358 -1.19941,2.88096 -0.0167,1.10505 -0.342437,2.69525 -0.723987,3.53364 -0.38155,0.83839 -0.50578,1.99929 -0.276468,2.57969 0.86705,2.19454 0.390088,2.83738 -2.514576,3.38997 -1.472327,0.2801 -2.825652,0.64483 -3.007569,0.8108 -0.181915,0.16597 -0.11574,1.23097 0.147277,2.36678 0.263046,1.13581 0.260078,2.44228 -0.0062,2.90319 -0.266287,0.46092 -0.28671,1.05389 -0.04599,1.31774 0.240712,0.26384 0.282694,1.48348 0.09353,2.71043 -0.189142,1.22694 -0.0722,3.27836 0.259935,4.55838 0.540967,2.08487 0.715063,2.34086 1.670182,2.45773 1.736662,0.21253 2.466891,0.80802 2.87786,2.34663 0.345228,1.29245 0.486328,1.44125 1.285708,1.35444 0.494012,-0.0537 1.103268,0.12684 1.353407,0.40101 0.250151,0.27419 0.787609,0.51366 1.194758,0.53226 0.82631,0.0379 2.269834,-1.56785 4.191992,-4.66379 0.696831,-1.12237 1.929292,-2.64468 2.738853,-3.38326 1.676038,-1.52912 1.589239,-2.04267 -0.835094,-4.95215 -0.790757,-0.94901 -1.540814,-2.36458 -1.666562,-3.14606 -0.125751,-0.78147 -0.490731,-1.70842 -0.811321,-2.05983 -0.868061,-0.95147 -2.697033,-7.60591 -3.185851,-11.59205 -0.235812,-1.92283 -0.65904,-3.74907 -0.94103,-4.05815 -0.156308,-0.17133 -0.316177,-0.26317 -0.47284,-0.28526 -0.04243,-0.006 -0.08476,-0.007 -0.126605,-0.003 z m 20.1135,1.54771 c -0.137851,0.004 -0.276,0.0311 -0.402558,0.0873 -0.329952,0.14649 -0.262901,0.37564 0.174149,0.59479 0.39085,0.19596 0.862583,0.21765 1.048514,0.0481 0.369771,-0.33735 -0.222784,-0.74863 -0.820105,-0.73019 z m -7.662063,7.03833 c -0.175292,-0.0232 -0.454655,0.28022 -0.845945,0.91571 -0.941779,1.52953 -1.17131,2.26157 -0.827339,2.6386 0.361239,0.39595 2.07468,-2.83621 1.814359,-3.42253 -0.0355,-0.08 -0.0827,-0.12404 -0.141075,-0.13178 z m 2.218467,3.75378 c -0.19985,0.0148 -0.419224,0.15921 -0.713134,0.42736 -0.45534,0.41542 -0.742217,1.19603 -0.637688,1.73478 0.156972,0.8089 0.477729,0.96203 1.843299,0.87953 0.909439,-0.055 1.806975,0.0682 1.994194,0.27337 0.187208,0.2052 1.058712,0.49226 1.936832,0.63821 1.412819,0.2348 1.601822,0.15222 1.641761,-0.71882 0.0399,-0.87104 -0.222219,-1.02601 -2.277896,-1.34566 -1.457521,-0.22663 -2.57443,-0.70671 -2.99775,-1.28881 -0.308012,-0.42349 -0.532668,-0.61898 -0.789618,-0.59996 z m 9.401493,4.40128 c -0.144389,0.008 -0.280453,0.0599 -0.387573,0.15761 -0.78446,0.71569 0.539764,1.84132 1.951303,1.65882 1.372279,-0.17742 1.726459,-0.7939 0.488856,-0.8506 -0.430937,-0.0198 -1.039124,-0.3161 -1.351853,-0.65887 -0.195458,-0.21423 -0.460071,-0.32076 -0.700733,-0.30696 z m -8.422741,24.98659 c -0.259051,0.0487 0.0452,1.19956 0.675929,2.55746 1.16932,2.51736 2.779212,4.11508 4.369241,4.33669 0.68108,0.0949 0.816433,-0.0173 0.715201,-0.59221 -0.167399,-0.94888 -5.162801,-6.4144 -5.760371,-6.30194 z"
       id="path836"
       inkscape:connector-curvature="0" />
    <path
       style="opacity:1;fill:#440055;fill-opacity:0.38888891;stroke:none;stroke-width:0.99999994"
       d="m 102.23909,139.94809 c -2.15653,0.0401 -4.340906,0.3197 -6.449736,0.84491 -5.0114,1.24809 -10.56834,4.58448 -13.19248,7.9204 -1.94426,2.47163 -4.20765,4.05937 -5.76089,4.04107 -0.63469,-0.007 -2.36794,-0.68118 -3.85196,-1.49654 -1.484,-0.81537 -3.50692,-1.51225 -4.49481,-1.54925 -1.72089,-0.0644 -5.0349,1.41343 -6.93446,3.0923 -0.53608,0.47383 -1.6443,0.61332 -3.094905,0.38963 -1.829631,-0.28211 -2.229048,-0.19673 -2.099614,0.44855 0.08793,0.43834 0.241886,1.95067 0.342098,3.36103 0.594525,8.3676 0.904671,9.32674 4.506701,13.93352 1.1135,1.42408 2.52596,3.27174 3.13883,4.1062 0.61287,0.83446 1.26817,1.72375 1.45624,1.97611 0.1881,0.25232 0.27801,1.50099 0.19947,2.77451 -0.0785,1.27353 0.14773,2.64451 0.50333,3.04684 0.7739,0.87562 1.53204,3.64005 1.10226,4.01991 -0.16753,0.14806 -0.17297,0.62231 -0.0119,1.05368 0.16109,0.43135 0.42933,-0.65053 0.59634,-2.40398 0.16702,-1.75344 0.45316,-3.32018 0.63562,-3.48145 0.18246,-0.16125 0.21683,-1.01159 0.0765,-1.8898 -0.14035,-0.87822 -0.0677,-2.65072 0.16124,-3.93878 0.32867,-1.84913 0.67635,-2.49791 1.65209,-3.08457 0.99124,-0.59598 1.32585,-1.25174 1.69137,-3.31297 0.25062,-1.41334 0.95158,-3.168 1.55753,-3.89951 1.17595,-1.41961 1.53295,-1.88585 4.34753,-5.6751 2.08413,-2.80584 4.60198,-4.38424 9.83196,-6.16344 3.58839,-1.22075 4.46604,-1.24839 8.18813,-0.2558 1.56991,0.41864 2.976473,0.65298 3.125913,0.5209 0.14943,-0.13207 1.724693,0.32864 3.500563,1.0237 1.77587,0.69509 3.572,1.25323 3.99148,1.24023 0.41949,-0.013 1.00199,0.24731 1.29449,0.57826 0.29251,0.33095 1.68275,0.82675 3.08922,1.10226 2.93195,0.57435 4.85695,1.62941 6.9913,3.83078 1.24106,1.28002 1.54474,2.00528 1.76941,4.22196 0.14917,1.47202 0.14639,2.78641 -0.006,2.92127 -0.1526,0.13487 -0.29438,0.96037 -0.31523,1.834 l -0.0377,1.58801 -3.16311,0.30334 c -6.86987,0.65849 -7.10476,0.74214 -6.82956,2.43603 0.23641,1.45515 2.14917,1.94191 6.23528,1.58698 4.03071,-0.35011 5.5587,0.27841 7.00629,2.88096 0.77504,1.39343 0.41455,1.90143 -1.50379,2.11874 -1.02216,0.11579 -1.40811,0.37196 -1.61644,1.07332 -0.22209,0.74774 -0.63897,0.89018 -2.21433,0.75757 -2.74433,-0.23099 -8.08948,1.41638 -8.54108,2.6324 -0.52151,1.40423 -1.02808,1.66672 -1.71514,0.88935 -0.75522,-0.85449 -1.05189,-0.64424 -1.22059,0.86352 -0.26997,2.41282 2.82119,3.60344 3.69744,1.4242 0.65158,-1.62049 2.04747,-3.74509 2.51303,-3.82509 0.25569,-0.044 0.57678,0.39325 0.71365,0.97152 0.56366,2.38145 3.75743,2.68772 5.25497,0.50384 0.63471,-0.9256 0.72505,-0.91028 1.32964,0.22893 0.86301,1.62613 0.90001,1.5526 -1.03198,2.06396 l -1.69499,0.44855 1.63556,0.0806 c 0.89937,0.0445 3.05176,-0.3864 4.78317,-0.95756 1.7314,-0.57116 3.36922,-1.03601 3.63957,-1.03301 0.55459,0.007 0.91366,3.44301 0.72089,6.89983 -0.12319,2.20909 0.97391,5.00021 1.90272,4.84053 0.24431,-0.042 0.62886,-0.93736 0.85473,-1.99006 0.4603,-2.14527 -1.18086,-10.1208 -2.55436,-12.41319 -0.90756,-1.51471 -1.11216,-3.39522 -0.4346,-3.99407 0.22346,-0.19751 0.33797,-1.14307 0.25425,-2.10117 -0.0837,-0.9581 0.10817,-1.97241 0.42633,-2.25361 0.31817,-0.2812 0.55501,-1.40556 0.52658,-2.49855 -0.0608,-2.3363 0.54994,-2.50607 1.75493,-0.48834 0.63737,1.06724 0.81006,2.96766 0.65422,7.19904 -0.12009,3.2607 0.0977,6.72466 0.50333,8.00261 0.39335,1.23929 0.58173,2.37142 0.41858,2.51561 -0.16314,0.14419 2.3e-4,1.0923 0.36277,2.10685 0.68428,1.91496 0.50643,11.5117 -0.22531,12.15843 -0.22916,0.20254 -0.4988,1.77798 -0.59944,3.50108 -0.35796,6.12892 -1.21709,11.55412 -1.94614,12.29175 -0.4069,0.4118 -0.91232,0.9293 -1.12345,1.14981 -0.26954,0.2815 -0.0205,0.6325 0.83613,1.17874 1.92673,1.2287 2.13321,1.20277 3.10937,-0.39223 0.79408,-1.29744 1.06117,-1.45376 2.2841,-1.3348 0.26759,0.026 0.51462,0.0253 0.74466,0.005 1.63726,-9.43799 3.18932,-19.77011 4.34288,-30.27516 -0.32103,-0.22275 -0.64577,-0.45299 -0.95859,-0.68626 -1.37354,-1.02423 -3.11592,-1.91966 -3.87212,-1.99006 -0.7562,-0.0704 -1.67219,-0.4643 -2.03553,-0.8754 -1.01248,-1.14556 -1.44361,-4.29288 -0.84181,-6.14639 0.93041,-2.86557 1.14111,-6.13772 0.47232,-7.34012 -0.81348,-1.46251 -0.76254,-4.43012 0.0889,-5.18263 0.35709,-0.3156 1.25392,-0.6001 1.99316,-0.632 1.14152,-0.0493 1.8578,0.42523 4.7532,3.14864 0.79662,0.74931 1.4132,1.34221 1.91719,1.86139 0.45608,-7.93471 0.57982,-15.72515 0.23306,-23.0518 -1.2138,-0.43225 -2.3698,-0.73208 -2.93677,-0.73225 -0.81816,-2.5e-4 -3.12545,0.78695 -5.12733,1.74924 -4.32588,2.07942 -5.96955,1.88635 -8.52145,-1.00097 -3.41666,-3.86574 -8.95251,-8.06753 -12.68191,-9.62623 -2.96181,-1.23789 -6.47854,-1.83673 -10.07276,-1.76991 z m 28.23651,15.31784 c 1.12504,-0.0817 4.002,1.14713 4.95939,2.23035 0.48386,0.54746 0.91997,1.70093 0.96945,2.56367 0.12035,2.09872 -1.43849,3.51161 -3.30988,2.99982 -1.18162,-0.32314 -1.48584,-0.63211 -2.32079,-2.35696 -1.06729,-2.20489 -1.37643,-4.686 -0.66249,-5.31699 0.0785,-0.0694 0.2036,-0.10822 0.36432,-0.11989 z m -70.302676,18.00665 c -0.0719,0.003 -0.14703,0.011 -0.22169,0.0238 -0.29866,0.0513 -0.39525,0.26053 -0.21446,0.46509 0.18079,0.20454 0.48691,0.23221 0.68006,0.0615 0.19315,-0.1707 0.28922,-0.37988 0.21394,-0.46508 -0.0565,-0.0639 -0.24228,-0.0952 -0.45785,-0.0853 z m 11.73571,2.34559 c -0.35566,0.0293 -0.78407,1.04812 -1.26245,3.0639 -0.47858,2.01665 -0.40531,2.93754 0.3514,4.40128 0.53696,1.03868 0.79964,2.27453 0.59841,2.81637 -0.29493,0.79416 -0.19754,0.99042 0.54829,1.10639 0.7836,0.12185 0.90487,-0.18255 0.894,-2.24121 -0.007,-1.31031 -0.11259,-3.75938 -0.23513,-5.44256 -0.18194,-2.49939 -0.49143,-3.73741 -0.89452,-3.70417 z m 15.02389,1.00459 c -0.8587,0.034 -1.60774,0.61167 -1.21388,1.0573 0.15648,0.17706 0.5525,0.22708 0.88005,0.11111 0.32754,-0.11596 0.82321,-0.39018 1.10174,-0.60927 0.40859,-0.32128 0.33191,-0.42522 -0.39635,-0.53847 -0.12413,-0.0193 -0.24889,-0.0255 -0.37156,-0.0207 z m 22.836846,7.22127 c -0.68818,0.0435 -2.66836,1.12061 -2.69492,1.55132 -0.01,0.16025 0.23528,0.36798 0.54467,0.46147 0.67295,0.20334 2.74529,-1.52322 2.35644,-1.96318 -0.0361,-0.0409 -0.10788,-0.0558 -0.20619,-0.0496 z m -21.879276,2.66288 c -1.47695,0.003 -2.49432,0.31268 -3.24993,0.95757 -0.62879,0.53667 -0.55656,0.77957 0.5178,1.74253 0.82703,0.74128 1.6994,1.05369 2.58485,0.92552 1.229,-0.1779 1.34758,-0.29125 1.47278,-1.41025 0.19817,-1.77113 1.36941,-1.99721 2.67787,-0.51676 0.76738,0.86828 1.25436,1.10059 1.62316,0.77463 0.9222,-0.81507 -0.6761,-1.92082 -3.30884,-2.28927 -0.87967,-0.1231 -1.64635,-0.18527 -2.31769,-0.18397 z m -5.2033,1.79369 c -0.26623,0.011 -0.58036,0.13022 -0.7891,0.31471 -0.27833,0.24599 -0.36605,0.60524 -0.19534,0.7984 0.17072,0.19315 0.63582,0.0637 1.03353,-0.28783 0.3977,-0.3515 0.48543,-0.7108 0.19534,-0.79841 -0.0725,-0.0219 -0.15569,-0.0305 -0.24443,-0.0269 z m -11.16831,3.70727 c -0.17982,0.003 -0.33433,0.0263 -0.4377,0.0703 -0.51227,0.21783 0.12618,4.56933 0.77876,5.30769 0.5797,0.6559 0.85591,0.0893 1.22318,-2.50838 0.28591,-2.0222 0.18707,-2.48944 -0.57774,-2.72645 -0.31729,-0.0983 -0.68681,-0.14832 -0.9865,-0.14314 z m 45.501606,9.50743 c -0.20018,0.006 -0.3567,0.15883 -0.59738,0.37155 -0.55926,0.49429 -0.55279,0.78478 0.0264,1.17358 0.52022,0.34923 0.60616,0.76087 0.26459,1.26968 -0.58075,0.86512 0.0227,2.78283 1.3472,4.2814 1.15977,1.31222 0.63879,1.76074 -1.77612,1.5291 -2.48071,-0.23793 -2.71544,0.0341 -1.14205,1.3224 1.28192,1.04964 1.28168,1.05642 -0.0594,2.24173 -1.50957,1.3342 -1.43037,2.43063 0.21911,3.04322 0.55633,0.20662 1.20344,0.75575 1.43816,1.22008 0.31053,0.61434 0.74973,0.72243 1.61333,0.39688 0.98064,-0.36965 1.1918,-0.29122 1.21492,0.45268 0.0154,0.49516 -0.43006,1.63713 -0.98961,2.53783 -0.55955,0.90069 -0.90195,2.11974 -0.76119,2.70888 0.14075,0.58913 0.17408,1.45287 0.0739,1.91926 -0.25811,1.20149 0.935,1.40731 1.96732,0.33952 0.47643,-0.4928 1.18699,-1.01024 1.57923,-1.15032 0.39225,-0.14008 1.22894,-0.62655 1.85932,-1.08107 1.24799,-0.89994 1.6624,-1.47868 4.05867,-5.67045 2.96758,-5.1912 4.2523,-9.97806 3.03392,-11.30267 -0.27915,-0.30349 -0.92684,-1.67753 -1.43971,-3.05305 l -0.93276,-2.50062 -0.85576,1.11053 c -0.47085,0.6108 -1.22332,1.58516 -1.67173,2.16524 -1.06249,1.37445 -3.65529,1.20413 -5.14542,-0.33796 -2.23151,-2.30939 -2.88447,-3.00163 -3.32486,-2.98742 z m -44.151816,0.25425 c -0.61681,0.0841 -1.16533,1.23677 -1.21543,2.85822 -0.0341,1.10465 -0.38507,2.68947 -0.7798,3.52175 -0.39473,0.83226 -0.53793,1.9911 -0.31781,2.57504 0.83231,2.20796 0.34574,2.84299 -2.56728,3.34966 -1.47657,0.25682 -2.83598,0.60071 -3.02049,0.76378 -0.18451,0.16308 -0.13499,1.22903 0.11007,2.36885 0.24505,1.13982 0.22184,2.446 -0.0517,2.90267 -0.27353,0.45665 -0.3037,1.0491 -0.0672,1.31671 0.23652,0.26761 0.25966,1.48766 0.0512,2.71146 -0.20848,1.22381 -0.12379,3.2769 0.1881,4.562 0.508,2.09315 0.67776,2.35164 1.63091,2.48357 1.73309,0.23991 2.4535,0.84667 2.84013,2.39158 0.32479,1.29768 0.46439,1.44931 1.26504,1.37511 0.4948,-0.0459 1.1004,0.14412 1.34617,0.4222 0.24579,0.2781 0.7797,0.52577 1.18649,0.55087 0.82562,0.0509 2.29409,-1.53192 4.26486,-4.59714 0.71447,-1.11124 1.97097,-2.61412 2.79208,-3.33984 1.68338,-1.48782 1.62228,-1.94249 -0.66611,-4.95267 -2.69513,-3.5452 -4.66713,-9.63557 -5.4746,-16.90957 -0.2131,-1.91956 -0.61383,-3.74621 -0.8909,-4.0597 -0.2048,-0.2317 -0.41814,-0.32257 -0.62374,-0.29455 z m 38.594536,0.11369 c -1.15363,0.041 -3.03889,0.70265 -3.22254,1.31051 -0.24374,0.80672 0.63127,1.4972 1.64227,1.29605 1.47636,-0.29373 2.95753,-1.7849 2.39986,-2.41588 -0.13183,-0.14915 -0.43505,-0.20435 -0.81959,-0.19068 z m -14.288536,17.50074 c -0.0719,0.003 -0.14702,0.0109 -0.22169,0.0238 -0.29866,0.0513 -0.39524,0.26105 -0.21445,0.4656 0.18079,0.20453 0.48691,0.23222 0.68006,0.0615 0.19315,-0.17071 0.28974,-0.38041 0.21446,-0.46561 -0.0565,-0.0638 -0.2428,-0.0951 -0.45838,-0.0853 z m 22.956226,10.15235 c -0.17751,-0.01 -0.39253,0.071 -0.57361,0.23099 -0.28973,0.25607 -0.38724,0.62334 -0.21653,0.81649 0.17072,0.19315 0.54744,0.14187 0.83716,-0.1142 0.28973,-0.25608 0.38724,-0.62386 0.21653,-0.81701 -0.064,-0.0724 -0.15705,-0.11053 -0.26355,-0.11627 z m 2.43913,0.16175 c -0.1464,0.008 -0.32026,0.0463 -0.51729,0.11988 -1.05109,0.39251 -1.09445,0.47296 -0.57205,1.06402 0.25865,0.29266 0.77767,0.25083 1.16788,-0.0941 0.68031,-0.60127 0.55583,-1.12507 -0.0785,-1.08985 z m -3.05925,3.42149 c -0.12367,-0.004 -0.25171,0.0388 -0.35399,0.12919 -0.20454,0.18078 -0.13454,0.40023 0.15555,0.48783 0.29008,0.0877 0.59747,0.098 0.68265,0.0227 0.0852,-0.0753 0.0152,-0.2952 -0.15555,-0.48834 -0.0854,-0.0966 -0.20499,-0.14734 -0.32866,-0.15142 z m -3.021,1.6645 c -1.46819,-0.0509 -4.03461,1.15217 -8.48062,3.95996 -1.48752,0.93943 -2.60225,1.26206 -3.98425,1.15342 -4.559113,-0.35841 -7.112986,1.83306 -2.87011,2.4629 0.87674,0.13015 2.30665,0.0504 3.17759,-0.17725 1.06831,-0.27917 1.95424,-0.13213 2.72282,0.45165 0.70069,0.53221 1.70479,0.74671 2.60863,0.55708 1.19214,-0.25013 2.13151,-0.96216 4.97592,-3.77083 1.92848,-1.90424 3.51571,-3.66817 3.52743,-3.92018 0.0117,-0.25202 -0.61757,-0.56285 -1.39836,-0.69039 -0.0883,-0.0144 -0.18118,-0.023 -0.27905,-0.0264 z m 9.22682,6.66057 c -0.13562,-0.0195 -0.20666,0.17984 -0.27802,0.63873 -0.0772,0.49651 0.069,1.13964 0.32505,1.42937 0.37865,0.42843 0.492,0.35852 0.60616,-0.37569 0.0772,-0.49653 -0.069,-1.13965 -0.32504,-1.42937 -0.142,-0.16066 -0.24677,-0.25134 -0.32815,-0.26304 z m -37.109356,4.12327 c -0.1012,0.0232 -0.0369,0.36143 0.17932,1.07435 0.24681,0.81396 0.73445,1.79059 1.08262,2.17093 0.48825,0.53272 0.53036,0.3521 0.18448,-0.78859 -0.24681,-0.81395 -0.73393,-1.79109 -1.0821,-2.17144 -0.1831,-0.19977 -0.3036,-0.29915 -0.36432,-0.28525 z"
       id="path834"
       inkscape:connector-curvature="0" />
  </g>
</svg>
