<svg height="11" viewBox="0 0 152 11" width="152" xmlns="http://www.w3.org/2000/svg"><g fill="#f66d9b" fill-rule="evenodd"><path d="m67.2048-.0003-5.601 7-5.6-7-5.6 7-5.6-7-5.6 7-5.6-7-5.599 7-5.6-7-5.601 7-5.6-7-5.599 7-5.599-7-.006.007v3.202l.006-.008 5.599 7.001 5.599-7.001 5.6 7.001 5.601-7.001 5.6 7.001 5.599-7.001 5.6 7.001 5.6-7.001 5.6 7.001 5.6-7.001 5.6 7.001 5.601-7.001 4.82 6.025 1.562-1.25z"/><path d="m151.2045-.0003-5.601 7-5.6-7-5.6 7-5.6-7-5.6 7-5.6-7-5.599 7-5.6-7-5.6 7-5.601-7-5.599 7-5.599-7-5.599 7-4.82-6.024-1.561 1.25 6.381 7.976 5.599-7.001 5.599 7.001 5.599-7.001 5.601 7.001 5.6-7.001 5.6 7.001 5.599-7.001 5.6 7.001 5.6-7.001 5.6 7.001 5.6-7.001 5.6 7.001 5.601-7.001z"/></g></svg>