<svg id="payment-methods" xmlns="http://www.w3.org/2000/svg" xmlns:xlink="http://www.w3.org/1999/xlink" viewBox="0 0 464.209 108.277">
  <defs>
    <style>
      .cls-1 {
        opacity: 0.15;
      }

      .cls-2 {
        fill: #fff;
      }

      .cls-2, .cls-4 {
        stroke: #9ab4d8;
        stroke-miterlimit: 10;
        stroke-width: 0.5px;
      }

      .cls-3 {
        fill: #191b73;
      }

      .cls-11, .cls-14, .cls-15, .cls-16, .cls-17, .cls-18, .cls-3, .cls-5, .cls-6, .cls-9 {
        fill-rule: evenodd;
      }

      .cls-4 {
        fill: #fff406;
      }

      .cls-6 {
        fill: #3a2854;
      }

      .cls-7 {
        clip-path: url(#clip-path);
      }

      .cls-8 {
        fill: url(#linear-gradient);
      }

      .cls-10, .cls-9 {
        fill: #d1362c;
      }

      .cls-11 {
        fill: #e91d3e;
      }

      .cls-12 {
        fill: #2b2a29;
      }

      .cls-13, .cls-15 {
        fill: #f59f12;
      }

      .cls-14 {
        fill: #e42126;
      }

      .cls-16 {
        fill: #eb6320;
      }

      .cls-17 {
        fill: #185ff9;
      }

      .cls-18 {
        fill: #e6eaf0;
      }
    </style>
    <clipPath id="clip-path">
      <path id="use59" d="M378.9,88.9a.349.349,0,0,0-.232.058.579.579,0,0,0-.29.232.349.349,0,0,0-.058.232c0,.058.116.116.174.116a.736.736,0,0,0,.348-.058.579.579,0,0,0,.29-.232.349.349,0,0,0,.058-.232.613.613,0,0,0-.29-.116m.638,2.031c.058,0,.058,0,.116-.058a3.252,3.252,0,0,0,.87-.58,7.415,7.415,0,0,0-1.335-.812c-.058.058-.116.116-.174.116C379.077,89.829,379.309,90.293,379.541,90.931Zm-1.335.29a2.951,2.951,0,0,0,1.161-.232,9.476,9.476,0,0,1-.522-1.335h-.174a7.486,7.486,0,0,0-.464,1.567Zm-1.567-.87.058.174a.78.78,0,0,0,.348.406,6.076,6.076,0,0,1,1.044-1.509A4.119,4.119,0,0,0,376.64,90.351Zm1.335.87a6.455,6.455,0,0,1,.406-1.509.44.44,0,0,1-.232-.116,5.784,5.784,0,0,0-.986,1.393,1.12,1.12,0,0,0,.58.174A.439.439,0,0,0,377.974,91.221Zm3.191-1.567a6.441,6.441,0,0,0-1.741-.348.057.057,0,0,1-.058.058,8.876,8.876,0,0,1,1.335.87,2.907,2.907,0,0,0,.406-.464A.2.2,0,0,1,381.166,89.655Zm.232-.812a9.715,9.715,0,0,0-2.031.058v.116a5.508,5.508,0,0,1,1.857.406.98.98,0,0,0,.174-.58Zm.58,2.553a2.433,2.433,0,0,0,.522-.812l.116-.232a8.71,8.71,0,0,0-1.277-.638l-.058.116a3.186,3.186,0,0,1-.406.522,6.419,6.419,0,0,1,1.1,1.044Zm-1.741,1.219.174-.058a4.285,4.285,0,0,0,1.451-.986,6.584,6.584,0,0,0-1.1-1.1,4.131,4.131,0,0,1-.986.638l-.116.058c.174.464.348.928.58,1.451Zm-2.147.348a4,4,0,0,0,1.973-.29c-.232-.522-.406-1.044-.58-1.451a3.509,3.509,0,0,1-1.277.232,4.319,4.319,0,0,0-.116,1.509Zm-1.393-.406c.232.116.522.232.812.348l.348.058a6.37,6.37,0,0,1,.116-1.509H377.8a3.271,3.271,0,0,1-.7-.232A4.5,4.5,0,0,0,376.7,92.556Zm6.209.522a7.415,7.415,0,0,0,.812-1.219l.174-.522a7.226,7.226,0,0,0-1.1-.87l-.116.232a7.557,7.557,0,0,1-.58.87,5.538,5.538,0,0,1,.812,1.509Zm-1.973,1.451c.058,0,.058,0,.116-.058a5.014,5.014,0,0,0,1.683-1.219,5.541,5.541,0,0,0-.812-1.509,4.943,4.943,0,0,1-1.451.986l-.174.058C380.527,93.368,380.76,93.949,380.934,94.529Zm-2.379.406a5.017,5.017,0,0,0,2.2-.348l-.638-1.683a5.074,5.074,0,0,1-2.031.29,4.569,4.569,0,0,0,.464,1.741Zm-1.8-.406.58.232a2.71,2.71,0,0,0,.986.174,4.753,4.753,0,0,1-.406-1.741l-.406-.058a3.355,3.355,0,0,1-.812-.29A3.359,3.359,0,0,0,376.756,94.529Zm4.642,1.277.174-.058a6.2,6.2,0,0,0,1.451-.928,5.558,5.558,0,0,0-.174-1.277,5.8,5.8,0,0,1-1.683,1.161l-.116.058Zm-1.915.406a4.162,4.162,0,0,0,1.683-.348c-.116-.348-.232-.7-.406-1.1a5.634,5.634,0,0,1-2.147.406A5.2,5.2,0,0,0,379.483,96.212ZM378.032,88.9c.058-.058.116-.058.232-.116l.058.116-.116.058Zm-1.16.928a6.21,6.21,0,0,1,.928-.812l.232.116c-.464.29-.87.522-1.16.7Zm-.928,2.089a3.662,3.662,0,0,1,.464-1.335.2.2,0,0,0,.058-.116.057.057,0,0,0,.058.058,1.263,1.263,0,0,0,.406.522,4.5,4.5,0,0,0-.406,1.335A1.58,1.58,0,0,1,375.943,91.918Zm.232,2.321a4.042,4.042,0,0,1-.29-2.031,2.272,2.272,0,0,0,.58.464,8.7,8.7,0,0,0,0,1.741A1.269,1.269,0,0,0,376.176,94.239Zm.464.754a1.455,1.455,0,0,1-.232-.406l.174.116A.631.631,0,0,0,376.64,94.993Zm.174-.174.464.174a6.845,6.845,0,0,0,1.16.232,5.891,5.891,0,0,0,.754,1.044c-1.219-.058-2.089-.232-2.379-1.451Zm3.075,2.031a5.231,5.231,0,0,1-1.857-.522,5.723,5.723,0,0,0,1.393.174c.116.058.29.232.464.348Zm1.567-.232a8.215,8.215,0,0,1-1.161.232,2.083,2.083,0,0,1-.58-.406,6.359,6.359,0,0,0,1.509-.348,2.061,2.061,0,0,1,.232.522Zm1.509-.87a7.391,7.391,0,0,1-1.1.754l-.174.058-.174-.522.174-.058a5.3,5.3,0,0,0,1.335-.87A6.045,6.045,0,0,1,382.965,95.747Zm1.219-1.973a4.338,4.338,0,0,1-.928,1.683,1.934,1.934,0,0,0,0-.58A5.511,5.511,0,0,0,384.183,93.774Zm.116-.754-.058.116a4.2,4.2,0,0,1-1.044,1.451,5.99,5.99,0,0,0-.232-1.277,4.5,4.5,0,0,0,.928-1.393l.174-.406A2.606,2.606,0,0,1,384.3,93.02ZM383.081,89.6a4.191,4.191,0,0,1,.928,1.509,6.377,6.377,0,0,0-1.044-.812,2.912,2.912,0,0,0,.116-.7Zm-.232-.232a1.787,1.787,0,0,1-.174.754,8.711,8.711,0,0,0-1.277-.638,2,2,0,0,0,.174-.754A2.946,2.946,0,0,1,382.849,89.365Zm-3.307-.986c.29-.058,1.625-.058,1.857.232a9.936,9.936,0,0,0-2.031.058Zm-.58.116a.631.631,0,0,1,.29-.058l-.174.29H378.9Zm-.522.232.29-.116v.116a.213.213,0,0,0-.174.058.057.057,0,0,0-.058.058Z" transform="translate(-375.865 -88.348)"/>
    </clipPath>
    <linearGradient id="linear-gradient" x1="0.179" y1="0.328" x2="0.766" y2="0.638" gradientUnits="objectBoundingBox">
      <stop offset="0" stop-color="#8e72a8"/>
      <stop offset="1" stop-color="#3a2854"/>
    </linearGradient>
  </defs>
  <path id="path1220" class="cls-1" d="M636.219,64.6h58.548a5.944,5.944,0,0,1,5.919,5.919v30.406a5.944,5.944,0,0,1-5.919,5.919H636.219a5.944,5.944,0,0,1-5.919-5.919V70.519a5.944,5.944,0,0,1,5.919-5.919" transform="translate(-264.562 -27.115)"/>
  <path id="path1199" class="cls-1" d="M490.719,64.6h58.548a5.944,5.944,0,0,1,5.919,5.919v30.406a5.944,5.944,0,0,1-5.919,5.919H490.719a5.944,5.944,0,0,1-5.919-5.919V70.519a5.944,5.944,0,0,1,5.919-5.919" transform="translate(-203.49 -27.115)"/>
  <path id="path1193" class="cls-1" d="M345.219,64.6h58.548a5.944,5.944,0,0,1,5.919,5.919v30.406a5.944,5.944,0,0,1-5.919,5.919H345.219a5.944,5.944,0,0,1-5.919-5.919V70.519a5.982,5.982,0,0,1,5.919-5.919" transform="translate(-142.418 -27.115)"/>
  <path id="path1159" class="cls-1" d="M199.719,64.6h58.548a5.944,5.944,0,0,1,5.919,5.919v30.406a5.944,5.944,0,0,1-5.919,5.919H199.719a5.944,5.944,0,0,1-5.919-5.919V70.519a5.982,5.982,0,0,1,5.919-5.919" transform="translate(-81.346 -27.115)"/>
  <path id="path1117" class="cls-1" d="M54.219,64.6h58.548a5.944,5.944,0,0,1,5.919,5.919v30.406a5.944,5.944,0,0,1-5.919,5.919H54.219a5.944,5.944,0,0,1-5.919-5.919V70.519A6.02,6.02,0,0,1,54.219,64.6" transform="translate(-20.273 -27.115)"/>
  <g id="g905" transform="translate(28.027 35.164)">
    <path id="path30" class="cls-2" d="M54.219,60.6h58.548a5.944,5.944,0,0,1,5.919,5.919V96.924a5.944,5.944,0,0,1-5.919,5.919H54.219A5.944,5.944,0,0,1,48.3,96.924V66.519A6.02,6.02,0,0,1,54.219,60.6" transform="translate(-48.3 -60.6)"/>
    <path id="path38" class="cls-3" d="M107.632,93.209h3.482l-1.277-6.093c-.116.232-2.089,5.745-2.2,6.093M81.694,99.128h4.294l3.54-16.6H85.234Zm8.066-4.236a23.988,23.988,0,0,0-.812,3.656c3.191,1.335,8.878,1.393,11.257-1.741a5.2,5.2,0,0,0,.928-3.946c-.58-2.727-3.6-3.424-5.222-4.642-1.741-1.277,0-3.017,3.482-2.321a12.321,12.321,0,0,1,1.915.638l.754-3.54a13.488,13.488,0,0,0-4.236-.7c-2.5,0-5.4.986-6.557,3.307-1.393,2.785,0,5.048,2.553,6.383.928.464,2.611,1.161,2.843,2.031.464,1.567-1.625,2.031-2.9,1.973C91.327,95.762,91.153,95.3,89.76,94.892ZM63.3,82.764V83a14.33,14.33,0,0,1,4.584,1.625,3.863,3.863,0,0,1,.928,2.147l2.553,9.864c.174.812.406,1.741.638,2.5H76.53c.348-.7,3.133-7.427,3.482-8.3l2.611-6.209c.174-.464.754-1.683.87-2.089H79.025l-4.468,11.2c-.232-.348-1.567-8.182-1.8-9.342-.406-1.973-1.683-1.857-3.714-1.857-1.8,0-3.772-.058-5.571,0Zm53.094,16.363v-.116l-3.482-16.479c-1.044-.058-2.437,0-3.54,0a1.922,1.922,0,0,0-2.031,1.509c-.406.928-6.267,14.855-6.267,15.145h4.468l.928-2.5h5.454a13.161,13.161,0,0,1,.348,1.451c.232,1.161.116,1.044.7,1.044C114.015,99.128,115.233,99.128,116.394,99.128Z" transform="translate(-54.596 -69.708)"/>
  </g>
  <g id="g878" transform="translate(281.31 35.164)">
    <path id="path18" class="cls-4" d="M490.719,60.6h58.548a5.944,5.944,0,0,1,5.919,5.919V96.924a5.944,5.944,0,0,1-5.919,5.919H490.719a5.944,5.944,0,0,1-5.919-5.919V66.519a5.944,5.944,0,0,1,5.919-5.919" transform="translate(-484.8 -60.6)"/>
    <path id="path52" class="cls-5" d="M509.644,89.345V83.02a.83.83,0,0,1,.812-.812.793.793,0,0,1,.812.812v6.325a.83.83,0,0,1-.812.812.872.872,0,0,1-.812-.812m3.6.754h-1.16c-.174,0-.232-.116-.174-.29l2.785-6.847a1.211,1.211,0,0,1,1.161-.754,1.286,1.286,0,0,1,1.1.754l1.973,4.874,1.973-4.874a1.211,1.211,0,0,1,1.161-.754,1.285,1.285,0,0,1,1.1.754l2.785,6.847c.058.174,0,.29-.174.29h-1.16a.493.493,0,0,1-.29-.174L522,84.239l-2.321,5.687c-.116.232-.348.174-.58.174h-.7a.494.494,0,0,1-.29-.174l-2.321-5.687-2.321,5.687a.259.259,0,0,1-.232.174Zm-4.41,7.659-4.874-4.526a1.556,1.556,0,0,1-.464-1.044.83.83,0,0,1,.812-.812h6.383a.812.812,0,1,1,0,1.625h-4.526l4.874,4.526a1.556,1.556,0,0,1,.464,1.044.83.83,0,0,1-.812.812h-6.383a.793.793,0,0,1-.812-.812.83.83,0,0,1,.812-.812Zm4.41-6.383h-1.16c-.174,0-.232.116-.174.29l2.785,6.847a1.211,1.211,0,0,0,1.161.754,1.285,1.285,0,0,0,1.1-.754l1.973-4.874,1.973,4.874a1.211,1.211,0,0,0,1.161.754,1.285,1.285,0,0,0,1.1-.754l2.785-6.847c.058-.174,0-.29-.174-.29h-1.16a.493.493,0,0,0-.29.174L522,97.237l-2.321-5.687c-.116-.232-.348-.174-.58-.174h-.7a.494.494,0,0,0-.29.174l-2.321,5.687-2.321-5.687a.259.259,0,0,0-.232-.174Zm13.346,7.137V92.189a.83.83,0,0,1,.812-.812.793.793,0,0,1,.812.812v6.325a.83.83,0,0,1-.812.812A.872.872,0,0,1,526.588,98.513Zm2.959-7.079h5.745a.812.812,0,0,1,0,1.625h-1.915a.5.5,0,0,0-.464.464v5.048a.83.83,0,0,1-.812.812.793.793,0,0,1-.812-.812V93.523a.5.5,0,0,0-.464-.464h-1.335a.793.793,0,0,1-.812-.812A.882.882,0,0,1,529.547,91.434Zm11.2,0H543.3a.754.754,0,0,1,0,1.509h-3.307a2.328,2.328,0,0,0-2.321,2.321V95.5a2.328,2.328,0,0,0,2.321,2.321H543.3a.754.754,0,0,1,0,1.509h-3.424a3.74,3.74,0,0,1-3.714-3.714V95.09a3.74,3.74,0,0,1,3.714-3.714h.87Zm-23.5-.812L515.853,87.2l-1.393,3.424,1.393,3.424Zm4.932-3.482-1.393,3.424,1.393,3.424,1.393-3.424ZM544.75,98.571V92.189a.754.754,0,1,1,1.509,0v1.973a.5.5,0,0,0,.464.464h3.017a.754.754,0,0,1,0,1.509h-3.017a.5.5,0,0,0-.464.464v1.973a.768.768,0,0,1-.754.754.811.811,0,0,1-.754-.754Zm6.267-.058V92.189a.83.83,0,0,1,.812-.812.793.793,0,0,1,.812.812v6.325a.83.83,0,0,1-.812.812A.872.872,0,0,1,551.017,98.513ZM505.988,83.775,501.114,88.3a1.556,1.556,0,0,0-.464,1.044.83.83,0,0,0,.812.812h6.383a.793.793,0,0,0,.812-.812.83.83,0,0,0-.812-.812h-4.526l4.874-4.526a1.5,1.5,0,0,0,.464-1.044.83.83,0,0,0-.812-.812h-6.383a.793.793,0,0,0-.812.812.83.83,0,0,0,.812.812Z" transform="translate(-491.453 -69.645)"/>
  </g>
  <g id="g889" transform="translate(196.882 35.164)">
    <path id="path24" class="cls-2" d="M345.219,60.6h58.548a5.944,5.944,0,0,1,5.919,5.919V96.924a5.944,5.944,0,0,1-5.919,5.919H345.219a5.944,5.944,0,0,1-5.919-5.919V66.519a5.982,5.982,0,0,1,5.919-5.919" transform="translate(-339.3 -60.6)"/>
    <g id="g1115" transform="translate(7.34 15.981)">
      <path id="path54" class="cls-6" d="M352,88.074h5.919v2.379h-2.843v.928h2.611v2.263h-2.611v.928h2.843v2.321H352Zm11.315-.174a5.006,5.006,0,0,1,2.089.464v3.191a2.031,2.031,0,0,0-1.625-.812,1.865,1.865,0,0,0-1.915,1.741,1.826,1.826,0,0,0,1.915,1.741,1.881,1.881,0,0,0,1.625-.812V96.6a5.006,5.006,0,0,1-2.089.464,4.668,4.668,0,0,1-4.7-4.642,4.609,4.609,0,0,1,4.7-4.526" transform="translate(-352 -87.9)"/>
      <g id="Group_1" data-name="Group 1" class="cls-7" transform="translate(13.848 0.26)">
        <path id="path67" class="cls-8" d="M375.8,88.4h8.53v8.472H375.8Z" transform="translate(-375.838 -88.37)"/>
      </g>
      <path id="path69" class="cls-9" d="M379.219,94.4c2.031.406,3.83,1.277,1.625,3.017-3.191,2.611-12.882,4.178-16.944,2.5,3.017,2.2,14.681.464,18.162-2.437,2.611-2.147-.928-3.017-2.843-3.075" transform="translate(-356.995 -90.628)"/>
      <path id="path71" class="cls-10" d="M435.5,88.7h1.683v3.366h3.888V88.7h1.683v8.356h-1.683V93.574h-3.888v3.482H435.5Z" transform="translate(-387.048 -88.236)"/>
      <path id="path73" class="cls-9" d="M413.159,93.964l1.218-3.656h.116l1.218,3.656ZM412.115,97.1l.58-1.8h3.424l.58,1.8h1.857l-3.191-8.3h-1.973L410.2,97.1Z" transform="translate(-376.429 -88.278)"/>
      <path id="path75" class="cls-10" d="M426,94.973l.174.174a2.044,2.044,0,0,0,1.335.522,1.842,1.842,0,0,0,1.161-.348c.058,0,.058-.058.116-.116a.639.639,0,0,0,.232-.58.923.923,0,0,0-.29-.58,4.792,4.792,0,0,0-1.277-.812,7.634,7.634,0,0,1-1.683-1.1,2.21,2.21,0,0,1-.638-1.335,1.982,1.982,0,0,1,.406-1.393,2.474,2.474,0,0,1,.7-.638,3.022,3.022,0,0,1,1.741-.464,3.07,3.07,0,0,1,1.741.522,2.646,2.646,0,0,1,.7.7l-1.219.754a.7.7,0,0,0-.29-.29,1.605,1.605,0,0,0-.928-.29,1.7,1.7,0,0,0-.928.232.7.7,0,0,0-.29.29.926.926,0,0,0-.174.464.6.6,0,0,0,.232.464,5.9,5.9,0,0,0,1.335.87,5.044,5.044,0,0,1,1.625,1.1,2.165,2.165,0,0,1,.7,1.567,2.349,2.349,0,0,1-.638,1.567l-.232.232a3.4,3.4,0,0,1-2.147.7,3.159,3.159,0,0,1-2.263-.928,1.538,1.538,0,0,1-.29-.348Z" transform="translate(-382.599 -88.068)"/>
      <path id="path77" class="cls-9" d="M402.116,88.4a4.355,4.355,0,0,1,2.263.522v1.8a3.2,3.2,0,0,0-2.263-.928,3.06,3.06,0,0,0-3.133,3.017,3.1,3.1,0,0,0,3.133,3.017,3.2,3.2,0,0,0,2.263-.928v1.8a4.656,4.656,0,0,1-2.263.522c-2.959,0-4.816-1.973-4.816-4.41a4.48,4.48,0,0,1,4.816-4.41" transform="translate(-371.014 -88.11)"/>
    </g>
  </g>
  <g id="g874" transform="translate(365.738 35.164)">
    <path id="path12" class="cls-2" d="M636.219,60.6h58.548a5.944,5.944,0,0,1,5.919,5.919V96.924a5.944,5.944,0,0,1-5.919,5.919H636.219a5.944,5.944,0,0,1-5.919-5.919V66.519a5.944,5.944,0,0,1,5.919-5.919" transform="translate(-630.3 -60.6)"/>
    <g id="g1106" transform="translate(7.27 14.971)">
      <path id="path81" class="cls-11" d="M656.262,84.7h1.161a1.684,1.684,0,0,1,1.683,1.683v6.383c0,.986,1.219.87,1.741.812a3.807,3.807,0,0,1-.058,1.161c-.348,1.683-3.191,1.219-4,0a4.682,4.682,0,0,1-.522-2.5Zm-10.909.87h.174v1.973h2.321c.058.928.058,2.205-1.335,2.205h-1.044V92.94c0,.928,1.509.812,2.263.522a2.09,2.09,0,0,1-.522,1.973,3.075,3.075,0,0,1-3.6-.348,3.122,3.122,0,0,1-.812-2.263V88.182a2.588,2.588,0,0,1,2.553-2.611" transform="translate(-642.8 -83.714)"/>
      <path id="path83" class="cls-11" d="M654.42,92.721a2.029,2.029,0,0,1,.638-1.219,1.522,1.522,0,0,1,1.1-.29c.928.116,1.625,1.277.116,1.451a10.092,10.092,0,0,1-1.857.058m4.642,2.5a1.863,1.863,0,0,1-1.045,2.263,5.181,5.181,0,0,1-4.7-.464,3.873,3.873,0,0,1-1.451-2.727,4.375,4.375,0,0,1,2.089-4.584,4.165,4.165,0,0,1,1.567-.522,3.546,3.546,0,0,1,3.83,2.089,3.808,3.808,0,0,1,.232,1.335c-.058,1.277-.87,1.625-1.973,1.8a18.266,18.266,0,0,1-3.192.058C654.536,96.26,658.25,95.97,659.062,95.216Zm8.182-2.5a2.028,2.028,0,0,1,.638-1.219,1.522,1.522,0,0,1,1.1-.29c.928.116,1.625,1.277.116,1.451a9.94,9.94,0,0,1-1.857.058m4.7,2.5a1.863,1.863,0,0,1-1.044,2.263,5.181,5.181,0,0,1-4.7-.464,3.873,3.873,0,0,1-1.451-2.727,4.375,4.375,0,0,1,2.089-4.584,4.165,4.165,0,0,1,1.567-.522,3.546,3.546,0,0,1,3.83,2.089,3.808,3.808,0,0,1,.232,1.335c-.058,1.277-.87,1.625-1.973,1.8a18.265,18.265,0,0,1-3.191.058C667.418,96.26,671.131,95.97,671.944,95.216Z" transform="translate(-646.586 -85.584)"/>
      <path id="path85" class="cls-5" d="M693.8,97.552V95.637c-1.335.638-2.379.406-2.9-.29-.928-1.161-.232-2.959.87-3.714a2.611,2.611,0,0,1,2.611-.232c.174-.638.406-1.277.58-1.857a5.827,5.827,0,0,0-5.687,1.509c-1.509,1.741-1.973,4.99.232,6.325a5.118,5.118,0,0,0,4.294.174" transform="translate(-661.771 -85.657)"/>
      <path id="path87" class="cls-5" d="M704.45,88.454c-2.147-.464-4.178,2.843-3.133,4.41a.977.977,0,0,0,1.509.232,2.358,2.358,0,0,0,.58-.522c.7-.928.812-2.959,1.044-4.12m-.58,5.164a12.085,12.085,0,0,0,0,1.451h2.147a49.9,49.9,0,0,1,1.1-8.124c-2.611-.87-6.383-.29-7.892,2.611-.754,1.451-1.1,4.062.348,5.222,1.161.928,3.017.638,4.294-1.161Zm9.574,1.625L715.765,83h2.379l-.928,4.932c1.219-1.161,2.205-1.393,3.017-1.219,2.205.348,1.915,2.727,1.625,4.352a19.412,19.412,0,0,0-.812,4.236h-2.5c.232-1.219.464-2.379.754-3.6a8.894,8.894,0,0,0,.29-1.857c0-2.263-2.437-1.219-2.959,1.451l-.754,4h-2.437Z" transform="translate(-666.211 -83)"/>
      <path id="path89" class="cls-11" d="M717.708,95.077c.116-1.335-.87-2.031-.812-2.9.058-1.451,1.973-1.393,2.959-1.044l-.29.58,1.741-.7L720.9,89.1l-.29.58a4.753,4.753,0,0,0-3.714-.174,2.547,2.547,0,0,0-1.625,3.6c.58.87,1.857,1.044,2.437,1.973" transform="translate(-673.086 -85.56)"/>
      <path id="path91" class="cls-5" d="M716.178,94a2.641,2.641,0,0,0,.464,1.567c1.393,2.5-1.335,2.9-3.191,2.2l.29-.58-1.741.7.406,1.915.29-.58a5.4,5.4,0,0,0,2.031.522c1.509.116,3.075-.116,3.888-1.567a2.328,2.328,0,0,0,0-2.379c-.58-.87-1.857-.87-2.437-1.8" transform="translate(-671.846 -87.617)"/>
    </g>
  </g>
  <g id="g901" transform="translate(112.454 35.164)">
    <path id="path36" class="cls-2" d="M199.719,60.6h58.548a5.944,5.944,0,0,1,5.919,5.919V96.924a5.944,5.944,0,0,1-5.919,5.919H199.719a5.944,5.944,0,0,1-5.919-5.919V66.519a5.982,5.982,0,0,1,5.919-5.919" transform="translate(-193.8 -60.6)"/>
    <path id="path40" class="cls-12" d="M231.11,115.748a1.214,1.214,0,0,0-.348-.232,1.131,1.131,0,0,0-.464-.058h-.29l-.29.058-.29.174-.232.232a1.355,1.355,0,0,0-.406-.406.954.954,0,0,0-.58-.116h-.232l-.232.058-.232.116a.8.8,0,0,0-.174.232v-.348H226.7v2.9h.638v-1.625a.736.736,0,0,1,.058-.348,1.026,1.026,0,0,1,.406-.406.523.523,0,0,1,.29-.058.571.571,0,0,1,.464.174.866.866,0,0,1,.174.58V118.3h.638v-1.625a.736.736,0,0,1,.058-.348,1.026,1.026,0,0,1,.406-.406.523.523,0,0,1,.29-.058.571.571,0,0,1,.464.174.866.866,0,0,1,.174.58v1.625h.638v-1.857a1.131,1.131,0,0,0-.058-.464l-.232-.174" transform="translate(-207.609 -83.602)"/>
    <path id="path42" class="cls-12" d="M238.179,115.722a1.041,1.041,0,0,0-.406-.29,1.7,1.7,0,0,0-.522-.116,1.717,1.717,0,0,0-.58.116,1.217,1.217,0,0,0-.754.754,2.085,2.085,0,0,0-.116.638,2.468,2.468,0,0,0,.116.638,1.217,1.217,0,0,0,.754.754,1.717,1.717,0,0,0,.58.116,1.159,1.159,0,0,0,.522-.116,1.041,1.041,0,0,0,.406-.29v.348h.638v-2.9h-.638Zm0,1.509a1.269,1.269,0,0,1-.174.29.493.493,0,0,1-.29.174.736.736,0,0,1-.348.058c-.116,0-.29,0-.348-.058l-.29-.174a1.268,1.268,0,0,1-.174-.29,1.073,1.073,0,0,1,0-.7,1.268,1.268,0,0,1,.174-.29.493.493,0,0,1,.29-.174,1.073,1.073,0,0,1,.7,0l.29.174a1.269,1.269,0,0,1,.174.29.736.736,0,0,1,.058.348C238.237,117,238.179,117.115,238.179,117.231Zm3.6-.406a1.857,1.857,0,0,0-.754-.29l-.29-.058a.213.213,0,0,1-.174-.058l-.174-.058-.116-.058-.058-.116a.3.3,0,0,1,.116-.232.838.838,0,0,1,.406-.116h.29c.116,0,.174.058.232.058l.232.058a.213.213,0,0,0,.174.058l.29-.522a2.061,2.061,0,0,0-.522-.232,2.38,2.38,0,0,0-.638-.058,1.606,1.606,0,0,0-.522.058,2.828,2.828,0,0,0-.406.174.579.579,0,0,0-.232.29.861.861,0,0,0-.058.406.745.745,0,0,0,.232.58,1.291,1.291,0,0,0,.754.29l.29.058a.839.839,0,0,1,.406.116.3.3,0,0,1,.116.232c0,.116-.058.174-.174.232a1.159,1.159,0,0,1-.522.116h-.348c-.116,0-.174-.058-.232-.058a.44.44,0,0,1-.232-.116l-.174-.116-.29.464.348.174.348.116a2.514,2.514,0,0,1,.29.058h.29a1.789,1.789,0,0,0,.58-.058,2.827,2.827,0,0,0,.406-.174.579.579,0,0,0,.232-.29.839.839,0,0,0,.116-.406.709.709,0,0,0-.232-.522" transform="translate(-211.429 -83.518)"/>
    <path id="path44" class="cls-12" d="M252.522,115.219a1.263,1.263,0,0,0-.464-.29,1.509,1.509,0,0,0-1.161,0,1.217,1.217,0,0,0-.754.754,1.813,1.813,0,0,0,0,1.277,1.217,1.217,0,0,0,.754.754,2.062,2.062,0,0,0,.58.116,2.468,2.468,0,0,0,.638-.116,1.546,1.546,0,0,0,.58-.348l-.29-.464a.935.935,0,0,1-.406.232,1.278,1.278,0,0,1-.464.058.435.435,0,0,1-.29-.058.3.3,0,0,1-.232-.116.8.8,0,0,1-.174-.232.825.825,0,0,1-.116-.348h2.147V116.2a2.086,2.086,0,0,0-.116-.638c0-.058-.116-.174-.232-.348m-1.741.87.058-.29a1.026,1.026,0,0,1,.406-.406.523.523,0,0,1,.29-.058.81.81,0,0,1,.522.174.736.736,0,0,1,.232.522h-1.509Zm10.213-.87a1.041,1.041,0,0,0-.406-.29,1.694,1.694,0,0,0-.522-.116,1.717,1.717,0,0,0-.58.116,1.217,1.217,0,0,0-.754.754,2.085,2.085,0,0,0-.116.638,2.467,2.467,0,0,0,.116.638,1.217,1.217,0,0,0,.754.754,1.717,1.717,0,0,0,.58.116,1.159,1.159,0,0,0,.522-.116,1.041,1.041,0,0,0,.406-.29v.348h.638v-2.9h-.638Zm0,1.509a1.269,1.269,0,0,1-.174.29.493.493,0,0,1-.29.174.736.736,0,0,1-.348.058c-.116,0-.29,0-.348-.058l-.29-.174a1.266,1.266,0,0,1-.174-.29,1.074,1.074,0,0,1,0-.7,1.269,1.269,0,0,1,.174-.29.493.493,0,0,1,.29-.174,1.073,1.073,0,0,1,.7,0l.29.174a1.267,1.267,0,0,1,.174.29,1.073,1.073,0,0,1,0,.7Zm-11.663.522a.631.631,0,0,1-.29.058.213.213,0,0,1-.174-.058c-.058,0-.116-.058-.174-.116l-.116-.174-.058-.232v-1.277h1.044v-.58h-1.044V114h-.638v.87h-.58v.58h.58v1.277a1.2,1.2,0,0,0,.29.87,1.1,1.1,0,0,0,.754.29,1.606,1.606,0,0,0,.522-.058l.29-.116-.232-.522a.213.213,0,0,0-.174.058m5.745-2.437a1.093,1.093,0,0,0-.464.116,1,1,0,0,0-.348.348v-.406h-.58v2.9h.58v-1.625a.736.736,0,0,1,.058-.348c.058-.116.058-.174.116-.232a.8.8,0,0,1,.232-.174.435.435,0,0,1,.29-.058h.232c.058,0,.116,0,.116.058l.174-.638-.174-.058c-.058.116-.116.116-.232.116m8.82,0a1.093,1.093,0,0,0-.464.116,1,1,0,0,0-.348.348v-.406h-.58v2.9h.58v-1.625a.736.736,0,0,1,.058-.348c.058-.116.058-.174.116-.232a.8.8,0,0,1,.232-.174.435.435,0,0,1,.29-.058h.232c.058,0,.116,0,.116.058l.174-.638-.174-.058c0,.116-.116.116-.232.116" transform="translate(-216.256 -83.014)"/>
    <path id="path46" class="cls-12" d="M272.873,113.5v1.567a1.041,1.041,0,0,0-.406-.29,1.694,1.694,0,0,0-.522-.116,1.717,1.717,0,0,0-.58.116,1.217,1.217,0,0,0-.754.754,2.086,2.086,0,0,0-.116.638,2.468,2.468,0,0,0,.116.638,1.217,1.217,0,0,0,.754.754,1.717,1.717,0,0,0,.58.116,1.159,1.159,0,0,0,.522-.116,1.041,1.041,0,0,0,.406-.29v.348h.638V113.5Zm-.058,3.017a1.271,1.271,0,0,1-.174.29.493.493,0,0,1-.29.174.736.736,0,0,1-.348.058c-.116,0-.29,0-.348-.058l-.29-.174a1.268,1.268,0,0,1-.174-.29,1.074,1.074,0,0,1,0-.7,1.271,1.271,0,0,1,.174-.29.493.493,0,0,1,.29-.174,1.073,1.073,0,0,1,.7,0l.29.174a1.267,1.267,0,0,1,.174.29,1.074,1.074,0,0,1,0,.7Zm-10.271-1.044a.493.493,0,0,1,.29-.174.736.736,0,0,1,.348-.058.988.988,0,0,1,.406.058,1.267,1.267,0,0,1,.29.174l.29-.522a.935.935,0,0,0-.406-.232,2.086,2.086,0,0,0-.638-.116,2.467,2.467,0,0,0-.638.116,1.37,1.37,0,0,0-.522.348,3.218,3.218,0,0,0-.348.464,2.085,2.085,0,0,0-.116.638,2.467,2.467,0,0,0,.116.638.9.9,0,0,0,.348.464,2.026,2.026,0,0,0,.522.348,2.086,2.086,0,0,0,.638.116,2.468,2.468,0,0,0,.638-.116,1.455,1.455,0,0,0,.406-.232l-.29-.522-.29.174a.861.861,0,0,1-.406.058.736.736,0,0,1-.348-.058,1.268,1.268,0,0,1-.29-.174.493.493,0,0,1-.174-.29,1.451,1.451,0,0,1,0-.812,1.268,1.268,0,0,1,.174-.29" transform="translate(-222.216 -82.804)"/>
    <path id="path48" class="cls-12" d="M284.29,119.8h.116l.116.058a.2.2,0,0,1,.058.116v.232l-.058.116a.2.2,0,0,1-.116.058h-.232l-.116-.058a.2.2,0,0,1-.058-.116v-.232l.058-.116a.2.2,0,0,1,.116-.058h.116m0,.522h.058a.057.057,0,0,0,.058-.058l.058-.058v-.116a.057.057,0,0,0-.058-.058l-.058-.058h-.116a.057.057,0,0,0-.058.058l-.058.058v.116a.057.057,0,0,0,.058.058l.058.058Zm0-.348h.058v.116h-.058l.058.116h-.116l-.058-.116v.116h-.058v-.29h.174Zm-.058.058.058.058C284.29,120.032,284.29,120.032,284.232,120.032Z" transform="translate(-231.661 -85.449)"/>
    <path id="path50" class="cls-13" d="M283.816,101.964v-.348H283.7V101.5h.348v.116h-.116v.348Zm.7,0v-.29l-.116.232h-.116l-.116-.232v.29h-.116v-.406h.116l.116.29.116-.29h.116Z" transform="translate(-231.535 -77.767)"/>
    <path id="path95" class="cls-14" d="M234.725,72.9A11.025,11.025,0,1,1,223.7,83.925,11.02,11.02,0,0,1,234.725,72.9" transform="translate(-206.35 -65.763)"/>
    <path id="path97" class="cls-15" d="M258.325,72.9A11.025,11.025,0,1,1,247.3,83.925,11.02,11.02,0,0,1,258.325,72.9" transform="translate(-216.256 -65.763)"/>
    <path id="path99" class="cls-16" d="M251.478,77a11.035,11.035,0,0,1,0,17.292,11.035,11.035,0,0,1,0-17.292" transform="translate(-216.256 -67.484)"/>
  </g>
  <path id="path4" class="cls-17" d="M149.319.522l-4.41,8.936L143.98.522h-4.236l-4.7,8.936L134.406.522h-5.164l2.031,14.39h4.642l4.816-9.284.87,9.284h4.642l8.24-14.39ZM123.787,7.659a5,5,0,0,1-4.816,3.656c-2.147,0-3.656-1.509-3.249-3.6h.058a4.978,4.978,0,0,1,4.758-3.656C122.685,4.062,124.193,5.571,123.787,7.659ZM121.408,0c-6.093,0-9.864,4.12-10.619,7.6-.812,3.54,1.277,7.659,7.369,7.659s9.864-4.12,10.677-7.659C129.532,4.178,127.5,0,121.408,0ZM104.755,0a6.621,6.621,0,0,0-5.048,2.031l.348-1.509h-4.7l-3.133,14.39h4.99l1.683-7.834c.348-1.451,1.044-3.017,3.482-3.017,2.2,0,2.321,1.393,1.973,2.959l-1.683,7.834h4.99l1.915-8.994C110.093,3.946,110.383,0,104.755,0Zm-33.6,7.892a4.777,4.777,0,0,1-1.1,1.857,5.237,5.237,0,0,1-3.83,1.625c-3.017,0-3.656-2.263-3.366-3.6a5.01,5.01,0,0,1,4.932-3.714c2.089,0,3.017.986,3.366,1.973A3.365,3.365,0,0,1,71.158,7.892ZM89.61.522,84.62,8.878,82.995.522H72.724l-.348,1.509C71.912,1.161,70.635,0,67.85,0c-4.41,0-8.994,2.959-10.039,7.659-.928,4.12,1.393,7.717,6.731,7.717a7.352,7.352,0,0,0,5.4-2.031l-.348,1.567h4.99L77.657.7l3.191,13.462-3.83,5.512H82.3L94.832.464H89.61ZM52.125,7.659a5.054,5.054,0,0,1-4.99,3.656,3.667,3.667,0,0,1-2.727-1.044,2.657,2.657,0,0,1-.638-2.553A4.482,4.482,0,0,1,45.51,5.106,5.355,5.355,0,0,1,48.76,4c2.727,0,3.714,1.973,3.366,3.656ZM50.616,0a8.775,8.775,0,0,0-5.745,2.089L45.22.522h-4.7L36.4,19.729h4.99l1.044-4.816.29-1.277c.464.522,1.625,1.8,4.642,1.8a10.032,10.032,0,0,0,9.748-7.543C57.812,4.468,56.535,0,50.616,0Z" transform="translate(-15.279)"/>
  <path id="path6" class="cls-18" d="M457.013,12.1H146.284v2.785H457.013a4.47,4.47,0,0,1,4.468,4.468V106.1a4.47,4.47,0,0,1-4.468,4.468H7.311A4.47,4.47,0,0,1,2.843,106.1V19.353a4.47,4.47,0,0,1,4.468-4.468h6.731V12.1H7.253A7.256,7.256,0,0,0,0,19.353V106.1a7.256,7.256,0,0,0,7.253,7.253h449.7a7.256,7.256,0,0,0,7.253-7.253V19.353a7.207,7.207,0,0,0-7.2-7.253" transform="translate(0 -5.079)"/>
</svg>
