<svg xmlns="http://www.w3.org/2000/svg" viewBox="0 0 176 124">
  <defs>
    <style>
      .cls-1 {
        fill: #313133;
      }

      .cls-2 {
        fill: #fff;
      }
    </style>
  </defs>
  <g id="Group_1" data-name="Group 1" transform="translate(-8 -34)">
    <path id="Path_1" data-name="Path 1" class="cls-1" d="M180.322,53.363A22.113,22.113,0,0,0,164.762,37.7C151.037,34,96,34,96,34s-55.037,0-68.762,3.7a22.113,22.113,0,0,0-15.56,15.661C8,67.177,8,96,8,96s0,28.823,3.678,42.637A22.113,22.113,0,0,0,27.238,154.3C40.963,158,96,158,96,158s55.037,0,68.762-3.7a22.113,22.113,0,0,0,15.56-15.661C184,124.823,184,96,184,96S184,67.177,180.322,53.363Z"/>
    <path id="Path_2" data-name="Path 2" class="cls-2" d="M78,122.169V69.831L124,96Z"/>
  </g>
</svg>
